<?xml version="1.0" standalone="no"?>
<!DOCTYPE svg PUBLIC "-//W3C//DTD SVG 1.1//EN" "http://www.w3.org/Graphics/SVG/1.1/DTD/svg11.dtd" >
<svg xmlns="http://www.w3.org/2000/svg">
<metadata>Generated by IcoMoon</metadata>
<defs>
<font id="icomoon" horiz-adv-x="1024">
<font-face units-per-em="1024" ascent="960" descent="-64" />
<missing-glyph horiz-adv-x="1024" />
<glyph unicode="&#x20;" horiz-adv-x="512" d="" />
<glyph unicode="&#xe900;" glyph-name="activity" d="M640 21.333c-18.389 0-34.645 11.733-40.448 29.184l-215.552 646.571-87.509-262.571c-5.845-17.451-22.101-29.184-40.491-29.184h-170.667c-23.552 0-42.667 19.072-42.667 42.667 0 23.552 19.115 42.667 42.667 42.667h139.904l118.272 354.816c5.845 17.451 22.101 29.184 40.491 29.184s34.645-11.733 40.491-29.184l215.509-646.571 87.552 262.571c5.803 17.451 22.059 29.184 40.448 29.184h170.667c23.595 0 42.667-19.115 42.667-42.667 0-23.595-19.072-42.667-42.667-42.667h-139.904l-118.272-354.816c-5.845-17.451-22.101-29.184-40.491-29.184z" />
<glyph unicode="&#xe901;" glyph-name="airplay" d="M853.333 192h-42.667c-23.595 0-42.667 19.072-42.667 42.667s19.072 42.667 42.667 42.667h42.667c23.552 0 42.667 19.115 42.667 42.667v426.667c0 23.509-19.115 42.667-42.667 42.667h-682.667c-23.509 0-42.667-19.157-42.667-42.667v-426.667c0-23.552 19.157-42.667 42.667-42.667h42.667c23.552 0 42.667-19.072 42.667-42.667s-19.115-42.667-42.667-42.667h-42.667c-70.571 0-128 57.429-128 128v426.667c0 70.571 57.429 128 128 128h682.667c70.571 0 128-57.429 128-128v-426.667c0-70.571-57.429-128-128-128zM726.187 21.333c-0.171 0-0.512 0-0.853 0h-426.667c-16.555 0-31.616 9.6-38.656 24.576s-4.736 32.683 5.888 45.397l213.333 256c16.213 19.413 49.323 19.413 65.579 0l208.896-250.709c9.301-7.851 15.147-19.541 15.147-32.64 0-23.552-19.115-42.624-42.667-42.624zM389.76 106.667h244.48l-122.24 146.688-122.24-146.688z" />
<glyph unicode="&#xe902;" glyph-name="alert-circle" d="M512-21.333c-258.773 0-469.333 210.56-469.333 469.333s210.56 469.333 469.333 469.333 469.333-210.56 469.333-469.333-210.56-469.333-469.333-469.333zM512 832c-211.712 0-384-172.288-384-384 0-211.755 172.288-384 384-384 211.755 0 384 172.245 384 384 0 211.712-172.245 384-384 384zM512 405.333c-23.552 0-42.667 19.072-42.667 42.667v170.667c0 23.552 19.115 42.667 42.667 42.667 23.595 0 42.667-19.115 42.667-42.667v-170.667c0-23.595-19.072-42.667-42.667-42.667zM512 234.667c-11.093 0-22.187 4.693-30.293 12.373-7.68 8.107-12.373 19.2-12.373 30.293s4.693 22.229 12.373 30.293c16.213 15.787 44.373 15.787 60.587 0 7.68-8.064 12.373-19.2 12.373-30.293s-4.693-22.187-12.373-30.293c-8.107-7.68-19.2-12.373-30.293-12.373z" />
<glyph unicode="&#xe903;" glyph-name="alert-octagon" d="M688.683-21.333h-353.323c-11.307 0-22.187 4.48-30.165 12.501l-250.027 249.984c-8.021 8.021-12.501 18.859-12.501 30.165v353.323c0 11.307 4.48 22.187 12.501 30.165l250.027 250.027c7.979 8.021 18.859 12.501 30.165 12.501h353.323c11.349 0 22.187-4.48 30.165-12.501l249.984-250.027c8.021-7.979 12.501-18.859 12.501-30.165v-353.323c0-11.349-4.48-22.187-12.501-30.165l-249.984-249.984c-8.021-8.021-18.859-12.501-30.165-12.501zM353.024 64h317.995l224.981 224.981v317.995l-224.981 225.024h-317.995l-225.024-225.024v-317.995l225.024-224.981zM512 405.333c-23.552 0-42.667 19.072-42.667 42.667v170.667c0 23.552 19.115 42.667 42.667 42.667 23.595 0 42.667-19.115 42.667-42.667v-170.667c0-23.595-19.072-42.667-42.667-42.667zM512 234.667c-11.093 0-22.187 4.693-30.293 12.373-7.68 8.107-12.373 19.2-12.373 30.293s4.693 22.229 12.373 30.293c16.213 15.787 44.373 15.787 60.587 0 7.68-8.064 12.373-19.2 12.373-30.293s-4.693-22.187-12.373-30.293c-8.107-7.68-19.2-12.373-30.293-12.373z" />
<glyph unicode="&#xe904;" glyph-name="alert-triangle" d="M873.429 21.333h-722.816c-22.443 0.256-44.075 6.187-63.061 17.109-61.099 35.328-82.133 113.749-46.848 174.891l361.728 603.904c10.795 17.792 25.728 32.683 43.221 43.307 19.968 12.117 42.923 18.56 66.261 18.56 45.141 0 86.059-23.040 109.483-61.611l361.515-603.563c11.392-19.669 17.28-41.387 17.493-63.275 0.384-34.048-12.544-66.347-36.437-90.795s-55.936-38.144-90.112-38.528c-0.128 0-0.256 0-0.427 0zM511.957 793.728c-7.765 0-15.36-2.133-22.059-6.229-5.888-3.541-10.837-8.491-14.379-14.336l-361.259-603.093c-11.435-19.797-4.395-45.952 16-57.728 6.272-3.627 13.483-5.589 20.821-5.675h722.091c11.307 0.171 21.845 4.693 29.739 12.843 8.021 8.107 12.288 18.859 12.16 30.251-0.043 7.381-2.048 14.549-5.717 20.907l-360.96 602.709c-7.723 12.672-21.376 20.352-36.437 20.352zM512 362.667c-23.552 0-42.667 19.072-42.667 42.667v170.667c0 23.552 19.115 42.667 42.667 42.667 23.595 0 42.667-19.115 42.667-42.667v-170.667c0-23.595-19.072-42.667-42.667-42.667zM512 192c-11.093 0-22.187 4.693-30.293 12.373-7.68 8.107-12.373 19.2-12.373 30.293s4.693 22.229 12.373 30.293c16.213 15.787 44.373 15.787 60.587 0 7.68-8.064 12.373-19.2 12.373-30.293s-4.693-22.187-12.373-30.293c-8.107-7.68-19.2-12.373-30.293-12.373z" />
<glyph unicode="&#xe905;" glyph-name="align-center" d="M768 490.667h-512c-23.552 0-42.667 19.115-42.667 42.667s19.115 42.667 42.667 42.667h512c23.595 0 42.667-19.115 42.667-42.667s-19.072-42.667-42.667-42.667zM896 661.333h-768c-23.552 0-42.667 19.115-42.667 42.667s19.115 42.667 42.667 42.667h768c23.595 0 42.667-19.115 42.667-42.667s-19.072-42.667-42.667-42.667zM896 320h-768c-23.552 0-42.667 19.072-42.667 42.667s19.115 42.667 42.667 42.667h768c23.595 0 42.667-19.072 42.667-42.667s-19.072-42.667-42.667-42.667zM768 149.333h-512c-23.552 0-42.667 19.072-42.667 42.667s19.115 42.667 42.667 42.667h512c23.595 0 42.667-19.072 42.667-42.667s-19.072-42.667-42.667-42.667z" />
<glyph unicode="&#xe906;" glyph-name="align-justify" d="M896 490.667h-768c-23.552 0-42.667 19.115-42.667 42.667s19.115 42.667 42.667 42.667h768c23.595 0 42.667-19.115 42.667-42.667s-19.072-42.667-42.667-42.667zM896 661.333h-768c-23.552 0-42.667 19.115-42.667 42.667s19.115 42.667 42.667 42.667h768c23.595 0 42.667-19.115 42.667-42.667s-19.072-42.667-42.667-42.667zM896 320h-768c-23.552 0-42.667 19.072-42.667 42.667s19.115 42.667 42.667 42.667h768c23.595 0 42.667-19.072 42.667-42.667s-19.072-42.667-42.667-42.667zM896 149.333h-768c-23.552 0-42.667 19.072-42.667 42.667s19.115 42.667 42.667 42.667h768c23.595 0 42.667-19.072 42.667-42.667s-19.072-42.667-42.667-42.667z" />
<glyph unicode="&#xe907;" glyph-name="align-left" d="M725.333 490.667h-597.333c-23.552 0-42.667 19.115-42.667 42.667s19.115 42.667 42.667 42.667h597.333c23.595 0 42.667-19.115 42.667-42.667s-19.072-42.667-42.667-42.667zM896 661.333h-768c-23.552 0-42.667 19.115-42.667 42.667s19.115 42.667 42.667 42.667h768c23.595 0 42.667-19.115 42.667-42.667s-19.072-42.667-42.667-42.667zM896 320h-768c-23.552 0-42.667 19.072-42.667 42.667s19.115 42.667 42.667 42.667h768c23.595 0 42.667-19.072 42.667-42.667s-19.072-42.667-42.667-42.667zM725.333 149.333h-597.333c-23.552 0-42.667 19.072-42.667 42.667s19.115 42.667 42.667 42.667h597.333c23.595 0 42.667-19.072 42.667-42.667s-19.072-42.667-42.667-42.667z" />
<glyph unicode="&#xe908;" glyph-name="align-right" d="M896 490.667h-597.333c-23.552 0-42.667 19.115-42.667 42.667s19.115 42.667 42.667 42.667h597.333c23.595 0 42.667-19.115 42.667-42.667s-19.072-42.667-42.667-42.667zM896 661.333h-768c-23.552 0-42.667 19.115-42.667 42.667s19.115 42.667 42.667 42.667h768c23.595 0 42.667-19.115 42.667-42.667s-19.072-42.667-42.667-42.667zM896 320h-768c-23.552 0-42.667 19.072-42.667 42.667s19.115 42.667 42.667 42.667h768c23.595 0 42.667-19.072 42.667-42.667s-19.072-42.667-42.667-42.667zM896 149.333h-597.333c-23.552 0-42.667 19.072-42.667 42.667s19.115 42.667 42.667 42.667h597.333c23.595 0 42.667-19.072 42.667-42.667s-19.072-42.667-42.667-42.667z" />
<glyph unicode="&#xe909;" glyph-name="anchor" d="M512 576c-94.123 0-170.667 76.544-170.667 170.667s76.544 170.667 170.667 170.667c94.123 0 170.667-76.544 170.667-170.667s-76.544-170.667-170.667-170.667zM512 832c-47.061 0-85.333-38.272-85.333-85.333s38.272-85.333 85.333-85.333c47.061 0 85.333 38.272 85.333 85.333s-38.272 85.333-85.333 85.333zM512-21.333c-23.552 0-42.667 19.072-42.667 42.667v597.333c0 23.552 19.115 42.667 42.667 42.667 23.595 0 42.667-19.115 42.667-42.667v-597.333c0-23.595-19.072-42.667-42.667-42.667zM512-21.333c-258.773 0-469.333 210.56-469.333 469.333 0 23.552 19.115 42.667 42.667 42.667h128c23.552 0 42.667-19.115 42.667-42.667 0-23.595-19.115-42.667-42.667-42.667h-82.987c21.291-191.744 184.32-341.333 381.653-341.333s360.32 149.589 381.611 341.333h-82.944c-23.595 0-42.667 19.072-42.667 42.667 0 23.552 19.072 42.667 42.667 42.667h128c23.595 0 42.667-19.115 42.667-42.667 0-258.773-210.56-469.333-469.333-469.333z" />
<glyph unicode="&#xe90a;" glyph-name="arrow2-down" d="M219.429 594.286l297.477-365.714 287.666 365.714z" />
<glyph unicode="&#xe90b;" glyph-name="archive" d="M896 21.333h-768c-23.552 0-42.667 19.072-42.667 42.667v554.667c0 23.552 19.115 42.667 42.667 42.667s42.667-19.115 42.667-42.667v-512h682.667v512c0 23.552 19.072 42.667 42.667 42.667s42.667-19.115 42.667-42.667v-554.667c0-23.595-19.072-42.667-42.667-42.667zM981.333 576h-938.667c-23.552 0-42.667 19.115-42.667 42.667v213.333c0 23.552 19.115 42.667 42.667 42.667h938.667c23.595 0 42.667-19.115 42.667-42.667v-213.333c0-23.552-19.072-42.667-42.667-42.667zM85.333 661.333h853.333v128h-853.333v-128zM597.333 405.333h-170.667c-23.552 0-42.667 19.072-42.667 42.667 0 23.552 19.115 42.667 42.667 42.667h170.667c23.595 0 42.667-19.115 42.667-42.667 0-23.595-19.072-42.667-42.667-42.667z" />
<glyph unicode="&#xe90c;" glyph-name="arrow-down-circle" d="M512-21.333c-258.773 0-469.333 210.56-469.333 469.333s210.56 469.333 469.333 469.333 469.333-210.56 469.333-469.333-210.56-469.333-469.333-469.333zM512 832c-211.712 0-384-172.288-384-384 0-211.755 172.288-384 384-384 211.755 0 384 172.245 384 384 0 211.712-172.245 384-384 384zM512 234.667c-10.923 0-21.845 4.181-30.165 12.501l-170.667 170.667c-16.683 16.683-16.683 43.648 0 60.331s43.648 16.683 60.331 0l140.501-140.501 140.501 140.501c16.683 16.683 43.648 16.683 60.331 0s16.683-43.648 0-60.331l-170.667-170.667c-8.32-8.32-19.243-12.501-30.165-12.501zM512 234.667c-23.552 0-42.667 19.072-42.667 42.667v341.333c0 23.552 19.115 42.667 42.667 42.667 23.595 0 42.667-19.115 42.667-42.667v-341.333c0-23.595-19.072-42.667-42.667-42.667z" />
<glyph unicode="&#xe90d;" glyph-name="attachments" d="M778.317 587.413l-250.909-434.587c-48.218-83.516-154.96-112.082-238.529-63.833s-112.202 154.972-63.984 238.489l272.727 472.377c30.109 52.15 96.897 70.024 149.081 39.896s70.099-96.905 39.99-149.055l-229.091-396.797c-12-20.785-38.835-27.966-59.632-15.958s-27.996 38.838-15.996 59.622l207.273 359.007-56.721 32.748-207.273-359.007c-30.109-52.15-12.194-118.927 39.99-149.055s118.972-12.255 149.081 39.896l229.091 396.797c48.218 83.516 19.586 190.24-63.984 238.489s-190.311 19.683-238.529-63.833l-272.727-472.377c-66.327-114.882-26.977-261.553 87.977-327.922s261.65-27.112 327.977 87.77l250.909 434.587-56.721 32.748z" />
<glyph unicode="&#xe90e;" glyph-name="arrow-down-right" d="M725.333 192c-10.923 0-21.845 4.181-30.165 12.501l-426.667 426.667c-16.683 16.683-16.683 43.648 0 60.331s43.648 16.683 60.331 0l426.667-426.667c16.683-16.683 16.683-43.648 0-60.331-8.32-8.32-19.243-12.501-30.165-12.501zM725.333 192h-426.667c-23.552 0-42.667 19.072-42.667 42.667s19.115 42.667 42.667 42.667h384v384c0 23.552 19.072 42.667 42.667 42.667s42.667-19.115 42.667-42.667v-426.667c0-23.595-19.072-42.667-42.667-42.667z" />
<glyph unicode="&#xe90f;" glyph-name="arrow-down" d="M512 106.667c-23.552 0-42.667 19.072-42.667 42.667v597.333c0 23.552 19.115 42.667 42.667 42.667 23.595 0 42.667-19.115 42.667-42.667v-597.333c0-23.595-19.072-42.667-42.667-42.667zM512 106.667c-10.923 0-21.845 4.181-30.165 12.501l-298.667 298.667c-16.683 16.683-16.683 43.648 0 60.331s43.648 16.683 60.331 0l268.501-268.501 268.501 268.501c16.683 16.683 43.648 16.683 60.331 0s16.683-43.648 0-60.331l-298.667-298.667c-8.32-8.32-19.243-12.501-30.165-12.501z" />
<glyph unicode="&#xe910;" glyph-name="arrow-left-circle" d="M512-21.333c-258.773 0-469.333 210.56-469.333 469.333s210.56 469.333 469.333 469.333 469.333-210.56 469.333-469.333-210.56-469.333-469.333-469.333zM512 832c-211.712 0-384-172.288-384-384 0-211.755 172.288-384 384-384 211.755 0 384 172.245 384 384 0 211.712-172.245 384-384 384zM512 234.667c-10.923 0-21.845 4.181-30.165 12.501l-170.667 170.667c-16.683 16.683-16.683 43.648 0 60.331l170.667 170.667c16.683 16.683 43.648 16.683 60.331 0s16.683-43.648 0-60.331l-140.501-140.501 140.501-140.501c16.683-16.683 16.683-43.648 0-60.331-8.32-8.32-19.243-12.501-30.165-12.501zM682.667 405.333h-341.333c-23.552 0-42.667 19.072-42.667 42.667 0 23.552 19.115 42.667 42.667 42.667h341.333c23.595 0 42.667-19.115 42.667-42.667 0-23.595-19.072-42.667-42.667-42.667z" />
<glyph unicode="&#xe911;" glyph-name="arrow-left" d="M810.667 405.333h-597.333c-23.552 0-42.667 19.072-42.667 42.667 0 23.552 19.115 42.667 42.667 42.667h597.333c23.595 0 42.667-19.115 42.667-42.667 0-23.595-19.072-42.667-42.667-42.667zM512 106.667c-10.923 0-21.845 4.181-30.165 12.501l-298.667 298.667c-16.683 16.683-16.683 43.648 0 60.331l298.667 298.667c16.683 16.683 43.648 16.683 60.331 0s16.683-43.648 0-60.331l-268.501-268.501 268.501-268.501c16.683-16.683 16.683-43.648 0-60.331-8.32-8.32-19.243-12.501-30.165-12.501z" />
<glyph unicode="&#xe912;" glyph-name="arrow-right-circle" d="M512-21.333c-258.773 0-469.333 210.56-469.333 469.333s210.56 469.333 469.333 469.333 469.333-210.56 469.333-469.333-210.56-469.333-469.333-469.333zM512 832c-211.712 0-384-172.288-384-384 0-211.755 172.288-384 384-384 211.755 0 384 172.245 384 384 0 211.712-172.245 384-384 384zM512 234.667c-10.923 0-21.845 4.181-30.165 12.501-16.683 16.683-16.683 43.648 0 60.331l140.501 140.501-140.501 140.501c-16.683 16.683-16.683 43.648 0 60.331s43.648 16.683 60.331 0l170.667-170.667c16.683-16.683 16.683-43.648 0-60.331l-170.667-170.667c-8.32-8.32-19.243-12.501-30.165-12.501zM682.667 405.333h-341.333c-23.552 0-42.667 19.072-42.667 42.667 0 23.552 19.115 42.667 42.667 42.667h341.333c23.595 0 42.667-19.115 42.667-42.667 0-23.595-19.072-42.667-42.667-42.667z" />
<glyph unicode="&#xe913;" glyph-name="arrow-right" d="M810.667 405.333h-597.333c-23.552 0-42.667 19.072-42.667 42.667 0 23.552 19.115 42.667 42.667 42.667h597.333c23.595 0 42.667-19.115 42.667-42.667 0-23.595-19.072-42.667-42.667-42.667zM512 106.667c-10.923 0-21.845 4.181-30.165 12.501-16.683 16.683-16.683 43.648 0 60.331l268.501 268.501-268.501 268.501c-16.683 16.683-16.683 43.648 0 60.331s43.648 16.683 60.331 0l298.667-298.667c16.683-16.683 16.683-43.648 0-60.331l-298.667-298.667c-8.32-8.32-19.243-12.501-30.165-12.501z" />
<glyph unicode="&#xe914;" glyph-name="arrow-up-circle" d="M512-21.333c-258.773 0-469.333 210.56-469.333 469.333s210.56 469.333 469.333 469.333 469.333-210.56 469.333-469.333-210.56-469.333-469.333-469.333zM512 832c-211.712 0-384-172.288-384-384 0-211.755 172.288-384 384-384 211.755 0 384 172.245 384 384 0 211.712-172.245 384-384 384zM682.667 405.333c-10.923 0-21.845 4.181-30.165 12.501l-140.501 140.501-140.501-140.501c-16.683-16.683-43.648-16.683-60.331 0s-16.683 43.648 0 60.331l170.667 170.667c16.683 16.683 43.648 16.683 60.331 0l170.667-170.667c16.683-16.683 16.683-43.648 0-60.331-8.32-8.32-19.243-12.501-30.165-12.501zM512 234.667c-23.552 0-42.667 19.072-42.667 42.667v341.333c0 23.552 19.115 42.667 42.667 42.667 23.595 0 42.667-19.115 42.667-42.667v-341.333c0-23.595-19.072-42.667-42.667-42.667z" />
<glyph unicode="&#xe915;" glyph-name="arrow-up-left" d="M725.333 192c-10.923 0-21.845 4.181-30.165 12.501l-426.667 426.667c-16.683 16.683-16.683 43.648 0 60.331s43.648 16.683 60.331 0l426.667-426.667c16.683-16.683 16.683-43.648 0-60.331-8.32-8.32-19.243-12.501-30.165-12.501zM298.667 192c-23.552 0-42.667 19.072-42.667 42.667v426.667c0 23.552 19.115 42.667 42.667 42.667h426.667c23.595 0 42.667-19.115 42.667-42.667s-19.072-42.667-42.667-42.667h-384v-384c0-23.595-19.115-42.667-42.667-42.667z" />
<glyph unicode="&#xe916;" glyph-name="arrow-up-right" d="M298.667 192c-10.923 0-21.845 4.181-30.165 12.501-16.683 16.683-16.683 43.648 0 60.331l426.667 426.667c16.683 16.683 43.648 16.683 60.331 0s16.683-43.648 0-60.331l-426.667-426.667c-8.32-8.32-19.243-12.501-30.165-12.501zM725.333 192c-23.595 0-42.667 19.072-42.667 42.667v384h-384c-23.552 0-42.667 19.115-42.667 42.667s19.115 42.667 42.667 42.667h426.667c23.595 0 42.667-19.115 42.667-42.667v-426.667c0-23.595-19.072-42.667-42.667-42.667z" />
<glyph unicode="&#xe917;" glyph-name="arrow-up" d="M512 106.667c-23.552 0-42.667 19.072-42.667 42.667v597.333c0 23.552 19.115 42.667 42.667 42.667 23.595 0 42.667-19.115 42.667-42.667v-597.333c0-23.595-19.072-42.667-42.667-42.667zM810.667 405.333c-10.923 0-21.845 4.181-30.165 12.501l-268.501 268.501-268.501-268.501c-16.683-16.683-43.648-16.683-60.331 0s-16.683 43.648 0 60.331l298.667 298.667c16.683 16.683 43.648 16.683 60.331 0l298.667-298.667c16.683-16.683 16.683-43.648 0-60.331-8.32-8.32-19.243-12.501-30.165-12.501z" />
<glyph unicode="&#xe918;" glyph-name="arrow-down-left" d="M298.667 192c-10.923 0-21.845 4.181-30.165 12.501-16.683 16.683-16.683 43.648 0 60.331l426.667 426.667c16.683 16.683 43.648 16.683 60.331 0s16.683-43.648 0-60.331l-426.667-426.667c-8.32-8.32-19.243-12.501-30.165-12.501zM725.333 192h-426.667c-23.552 0-42.667 19.072-42.667 42.667v426.667c0 23.552 19.115 42.667 42.667 42.667s42.667-19.115 42.667-42.667v-384h384c23.595 0 42.667-19.072 42.667-42.667s-19.072-42.667-42.667-42.667z" />
<glyph unicode="&#xe919;" glyph-name="award" d="M512 277.333c-188.203 0-341.333 153.131-341.333 341.333s153.131 341.333 341.333 341.333 341.333-153.131 341.333-341.333-153.131-341.333-341.333-341.333zM512 874.667c-141.184 0-256-114.816-256-256s114.816-256 256-256 256 114.816 256 256-114.816 256-256 256zM725.333-64c-7.595 0-15.147 2.005-21.973 6.101l-191.36 114.816-191.36-114.816c-14.037-8.405-31.701-8.107-45.355 0.896-13.696 9.003-21.035 25.045-18.859 41.301l51.627 388.651c3.115 23.381 24.576 39.637 47.915 36.651 23.339-3.072 39.765-24.533 36.651-47.915l-39.979-300.928 137.429 82.475c13.525 8.064 30.379 8.064 43.904 0l137.472-82.475-40.021 301.355c-3.072 23.381 13.312 44.843 36.651 47.915 23.424 3.072 44.843-13.312 47.915-36.651l51.627-389.12c2.176-16.256-5.163-32.299-18.859-41.301-7.083-4.608-15.275-6.955-23.424-6.955z" />
<glyph unicode="&#xe91a;" glyph-name="check" d="M337.082 245.011l-227.584 231.356-77.499-78.228 305.082-310.139 654.918 665.772-76.953 78.228z" />
<glyph unicode="&#xe91b;" glyph-name="bar-chart-2" d="M768 64c-23.595 0-42.667 19.072-42.667 42.667v426.667c0 23.552 19.072 42.667 42.667 42.667s42.667-19.115 42.667-42.667v-426.667c0-23.595-19.072-42.667-42.667-42.667zM512 64c-23.552 0-42.667 19.072-42.667 42.667v682.667c0 23.552 19.115 42.667 42.667 42.667 23.595 0 42.667-19.115 42.667-42.667v-682.667c0-23.595-19.072-42.667-42.667-42.667zM256 64c-23.552 0-42.667 19.072-42.667 42.667v256c0 23.595 19.115 42.667 42.667 42.667s42.667-19.072 42.667-42.667v-256c0-23.595-19.115-42.667-42.667-42.667z" />
<glyph unicode="&#xe91c;" glyph-name="bar-chart" d="M512 64c-23.552 0-42.667 19.072-42.667 42.667v426.667c0 23.552 19.115 42.667 42.667 42.667 23.595 0 42.667-19.115 42.667-42.667v-426.667c0-23.595-19.072-42.667-42.667-42.667zM768 64c-23.595 0-42.667 19.072-42.667 42.667v682.667c0 23.552 19.072 42.667 42.667 42.667s42.667-19.115 42.667-42.667v-682.667c0-23.595-19.072-42.667-42.667-42.667zM256 64c-23.552 0-42.667 19.072-42.667 42.667v170.667c0 23.595 19.115 42.667 42.667 42.667s42.667-19.072 42.667-42.667v-170.667c0-23.595-19.115-42.667-42.667-42.667z" />
<glyph unicode="&#xe91d;" glyph-name="book" d="M848.635 828.062c25.082 0 47.365-20.503 47.365-53.318v-686.223c0-65.959-47.97-119.926-107.933-119.926h-540.141c-5.996 0-5.996 0-5.996 0s-5.996 0-5.996 0c-47.97 5.996-101.937 47.97-107.933 101.937 0 5.996 0 5.996 0 11.993s0 5.996 0 5.996v719.553c0 65.959 65.959 119.926 125.922 119.926h387.209c65.959 0 95.94-59.963 95.94-119.926v-549.659c0-11.993 0-17.989-11.993-17.989h-445.173c-29.981 0-59.963-29.981-59.963-59.963v-59.963c0-29.981 29.981-59.963 65.959-59.963h470.185c29.981 0 47.97 29.981 47.97 59.963v654.242c0 33.448 19.496 53.318 44.578 53.318zM285.902 836.057c-53.678 0-65.959-29.981-65.959-59.963v-485.101c0 11.993 35.978 29.981 59.963 29.981h361.764v455.12c0 34.51-23.817 59.963-57.546 59.963h-298.221zM677.659 180.464c11.993 0 23.985-11.993 23.985-29.981s-11.993-29.981-23.985-29.981h-353.78c-11.993 0-23.985 11.993-23.985 29.981s11.993 29.981 23.985 29.981h353.78z" />
<glyph unicode="&#xe91e;" glyph-name="correct" d="M904.782 723.972l-405.558-384.778-170.918 162.16-56.306-53.421 199.071-188.871c15.548-14.752 40.757-14.752 56.306 0l417.662 396.261c30.101-62.758 46.961-133.072 46.961-207.325 0-265.097-214.903-480-480-480s-480 214.903-480 480c0 265.097 214.903 480 480 480 162.375 0 305.919-80.626 392.782-204.028z" />
<glyph unicode="&#xe91f;" glyph-name="bell" d="M511.787-21.163c-21.803 0-43.861 5.547-64 17.28-19.2 11.136-35.285 27.221-46.464 46.421-11.819 20.395-4.907 46.507 15.445 58.325 20.395 11.861 46.464 4.949 58.325-15.403 3.712-6.443 9.088-11.819 15.531-15.531 20.309-11.819 46.464-4.779 58.368 15.488 11.861 20.395 37.931 27.307 58.283 15.445s27.349-37.931 15.445-58.283c-23.723-40.875-66.773-63.744-110.933-63.744zM938.667 192h-853.333c-23.552 0-42.667 19.072-42.667 42.667s19.115 42.667 42.667 42.667c47.061 0 85.333 38.272 85.333 85.333v213.333c0 188.203 153.131 341.333 341.333 341.333s341.333-153.131 341.333-341.333v-213.333c0-47.061 38.272-85.333 85.333-85.333 23.595 0 42.667-19.072 42.667-42.667s-19.072-42.667-42.667-42.667zM233.088 277.333h557.824c-14.592 25.131-22.912 54.272-22.912 85.333v213.333c0 141.184-114.816 256-256 256s-256-114.816-256-256v-213.333c0-31.061-8.32-60.203-22.912-85.333z" />
<glyph unicode="&#xe920;" glyph-name="bluetooth" d="M512-64c-5.504 0-11.051 1.024-16.341 3.243-15.915 6.571-26.325 22.187-26.325 39.424v366.336l-161.835-161.835c-16.683-16.683-43.648-16.683-60.331 0s-16.683 43.648 0 60.331l204.501 204.501-204.501 204.501c-16.683 16.683-16.683 43.648 0 60.331s43.648 16.683 60.331 0l161.835-161.835v366.336c0 17.237 10.411 32.811 26.325 39.424 15.957 6.613 34.261 2.944 46.507-9.259l234.667-234.667c16.683-16.683 16.683-43.648 0-60.331l-204.501-204.501 204.501-204.501c16.683-16.683 16.683-43.648 0-60.331l-234.667-234.667c-8.149-8.149-19.072-12.501-30.165-12.501zM554.667 345.003v-263.339l131.669 131.669-131.669 131.669zM554.667 814.336v-263.339l131.669 131.669-131.669 131.669z" />
<glyph unicode="&#xe921;" glyph-name="bell-off" d="M511.787-21.248c-22.272 0-44.245 5.888-64 17.365-19.2 11.136-35.285 27.221-46.464 46.421-11.819 20.395-4.907 46.507 15.445 58.325 20.395 11.861 46.464 4.949 58.325-15.403 3.712-6.443 9.088-11.819 15.531-15.531 9.856-5.717 21.333-7.253 32.341-4.352s20.267 9.941 25.984 19.84c11.861 20.395 37.931 27.307 58.283 15.445s27.349-37.931 15.445-58.283c-17.152-29.568-44.8-50.688-77.824-59.477-10.923-2.901-22.059-4.352-33.067-4.352zM725.333 192h-640c-23.552 0-42.667 19.072-42.667 42.667s19.115 42.667 42.667 42.667c47.061 0 85.333 38.272 85.333 85.333v213.333c-0.043 54.315 13.099 108.587 38.016 156.971 10.837 20.949 36.565 29.141 57.472 18.347 20.949-10.795 29.184-36.523 18.347-57.472-18.688-36.267-28.544-77.013-28.501-117.803v-213.376c0-31.061-8.32-60.203-22.912-85.333h492.245c23.595 0 42.667-19.072 42.667-42.667s-19.072-42.667-42.667-42.667zM810.667 362.667c-23.595 0-42.667 19.072-42.667 42.667v170.667c0 44.117-11.435 87.637-33.067 125.909-33.579 59.605-88.32 102.485-154.197 120.875-65.877 18.347-134.955 9.941-194.517-23.68-20.523-11.563-46.549-4.352-58.155 16.171-11.563 20.565-4.352 46.592 16.171 58.155 79.36 44.757 171.52 55.979 259.328 31.531 87.893-24.448 160.896-81.664 205.653-161.067 28.885-51.029 44.117-109.099 44.117-167.893v-170.667c0-23.595-19.072-42.667-42.667-42.667zM981.333-64c-10.923 0-21.845 4.181-30.165 12.501l-938.667 938.667c-16.683 16.683-16.683 43.648 0 60.331s43.648 16.683 60.331 0l938.667-938.667c16.683-16.683 16.683-43.648 0-60.331-8.32-8.32-19.243-12.501-30.165-12.501z" />
<glyph unicode="&#xe922;" glyph-name="book-open" d="M512 21.333c-23.552 0-42.667 19.072-42.667 42.667 0 47.061-38.272 85.333-85.333 85.333h-298.667c-23.552 0-42.667 19.072-42.667 42.667v640c0 23.552 19.115 42.667 42.667 42.667h256c117.632 0 213.333-95.701 213.333-213.333v-597.333c0-23.595-19.072-42.667-42.667-42.667zM128 234.667h256c31.061 0 60.203-8.32 85.333-22.912v449.579c0 70.571-57.429 128-128 128h-213.333v-554.667zM512 21.333c-23.552 0-42.667 19.072-42.667 42.667v597.333c0 117.632 95.701 213.333 213.333 213.333h256c23.595 0 42.667-19.115 42.667-42.667v-640c0-23.595-19.072-42.667-42.667-42.667h-298.667c-47.061 0-85.333-38.272-85.333-85.333 0-23.595-19.072-42.667-42.667-42.667zM682.667 789.333c-70.571 0-128-57.429-128-128v-449.579c25.131 14.592 54.272 22.912 85.333 22.912h256v554.667h-213.333z" />
<glyph unicode="&#xe923;" glyph-name="book2" d="M837.818 261.818v605.091h-581.818c-38.493 0-69.818-31.325-69.818-69.818v-551.002c21.172 10.083 44.848 15.729 69.818 15.729h581.818zM837.818 168.727h-581.818c-38.493 0-69.818-31.325-69.818-69.818s31.325-69.818 69.818-69.818h581.818v139.636zM884.364-64h-628.364c-89.833 0-162.909 73.076-162.909 162.909v698.182c0 89.833 73.076 162.909 162.909 162.909h628.364c25.74 0 46.545-20.852 46.545-46.545v-930.909c0-25.74-20.806-46.545-46.545-46.545z" />
<glyph unicode="&#xe924;" glyph-name="bold" d="M597.333 405.333h-341.333c-23.552 0-42.667 19.072-42.667 42.667v341.333c0 23.552 19.115 42.667 42.667 42.667h341.333c117.632 0 213.333-95.701 213.333-213.333s-95.701-213.333-213.333-213.333zM298.667 490.667h298.667c70.571 0 128 57.429 128 128s-57.429 128-128 128h-298.667v-256zM640 64h-384c-23.552 0-42.667 19.072-42.667 42.667v341.333c0 23.552 19.115 42.667 42.667 42.667h384c117.632 0 213.333-95.701 213.333-213.333s-95.701-213.333-213.333-213.333zM298.667 149.333h341.333c70.571 0 128 57.429 128 128s-57.429 128-128 128h-341.333v-256z" />
<glyph unicode="&#xe925;" glyph-name="bookmark" d="M810.667 21.333c-8.747 0-17.408 2.645-24.789 8.021l-273.877 195.541-273.877-195.669c-13.013-9.301-30.123-10.581-44.331-3.243-14.208 7.381-23.125 22.016-23.125 38.016v682.667c0 70.571 57.429 128 128 128h426.667c70.571 0 128-57.429 128-128v-682.667c0-16-8.917-30.635-23.125-38.016-6.229-3.072-12.885-4.651-19.541-4.651zM512 320c8.704 0 17.365-2.645 24.789-8.021l231.211-165.077v599.765c0 23.509-19.072 42.667-42.667 42.667h-426.667c-23.509 0-42.667-19.157-42.667-42.667v-599.765l231.211 165.077c7.424 5.376 16.085 8.021 24.789 8.021z" />
<glyph unicode="&#xe926;" glyph-name="box" horiz-adv-x="939" d="M512 47.425l317.611 158.825c14.635 7.296 23.723 21.931 23.723 38.229v390.464l-341.333-170.667v-416.852zM426.667 47.273v417.004l-341.333 170.667v-390.037c-0.128-16.64 8.875-31.36 23.509-38.741l317.824-158.892zM800.425 703.914l-312.19 156.076c-5.76 2.859-12.331 4.395-18.901 4.395-6.528 0-13.141-1.536-18.987-4.437l-312.064-156.071 331.051-165.508 331.092 165.546zM469.12-54.229c-19.755 0-39.552 4.651-57.259 13.483l-341.333 170.667c-43.904 22.144-70.869 66.304-70.528 115.285v405.888c0.043 48.939 27.264 92.843 71.040 114.603l341.248 170.624c35.371 17.579 78.805 17.536 114.048 0.043l341.419-170.709c43.691-21.717 70.912-65.621 70.912-114.56v-406.571c0-48.896-27.221-92.843-70.997-114.645l-341.248-170.624c-17.749-8.832-37.547-13.483-57.301-13.483z" />
<glyph unicode="&#xe927;" glyph-name="briefcase" d="M853.333 21.333h-682.667c-70.571 0-128 57.429-128 128v426.667c0 70.571 57.429 128 128 128h682.667c70.571 0 128-57.429 128-128v-426.667c0-70.571-57.429-128-128-128zM170.667 618.667c-23.509 0-42.667-19.157-42.667-42.667v-426.667c0-23.552 19.157-42.667 42.667-42.667h682.667c23.552 0 42.667 19.115 42.667 42.667v426.667c0 23.509-19.115 42.667-42.667 42.667h-682.667zM682.667 21.333c-23.595 0-42.667 19.072-42.667 42.667v682.667c0 23.509-19.115 42.667-42.667 42.667h-170.667c-23.509 0-42.667-19.157-42.667-42.667v-682.667c0-23.595-19.115-42.667-42.667-42.667s-42.667 19.072-42.667 42.667v682.667c0 70.571 57.429 128 128 128h170.667c70.571 0 128-57.429 128-128v-682.667c0-23.595-19.072-42.667-42.667-42.667z" />
<glyph unicode="&#xe928;" glyph-name="calendar" d="M884.364 587.636v139.636c0 25.647-20.852 46.545-46.545 46.545h-93.091v-46.545c0-25.693-20.806-46.545-46.545-46.545s-46.545 20.852-46.545 46.545v46.545h-279.273v-46.545c0-25.693-20.852-46.545-46.545-46.545s-46.545 20.852-46.545 46.545v46.545h-93.091c-25.647 0-46.545-20.899-46.545-46.545v-139.636h744.727zM884.364 494.545h-744.727v-418.909c0-25.693 20.899-46.545 46.545-46.545h651.636c25.693 0 46.545 20.852 46.545 46.545v418.909zM372.364 866.909h279.273v46.545c0 25.693 20.806 46.545 46.545 46.545s46.545-20.852 46.545-46.545v-46.545h93.091c76.986 0 139.636-62.65 139.636-139.636v-651.636c0-76.986-62.65-139.636-139.636-139.636h-651.636c-76.986 0-139.636 62.65-139.636 139.636v651.636c0 76.986 62.65 139.636 139.636 139.636h93.091v46.545c0 25.693 20.852 46.545 46.545 46.545s46.545-20.852 46.545-46.545v-46.545z" />
<glyph unicode="&#xe929;" glyph-name="list" d="M224 448c0 52.8-43.2 96-96 96s-96-43.2-96-96c0-52.8 43.2-96 96-96s96 43.2 96 96zM416 448c0-52.8 43.2-96 96-96s96 43.2 96 96c0 52.8-43.2 96-96 96s-96-43.2-96-96zM800 448c0-52.8 43.2-96 96-96s96 43.2 96 96c0 52.8-43.2 96-96 96s-96-43.2-96-96z" />
<glyph unicode="&#xe92a;" glyph-name="camera" d="M896 21.333h-768c-70.571 0-128 57.429-128 128v469.333c0 70.571 57.429 128 128 128h147.84l72.661 109.013c7.936 11.861 21.248 18.987 35.499 18.987h256c14.251 0 27.563-7.125 35.499-18.987l72.661-109.013h147.84c70.571 0 128-57.429 128-128v-469.333c0-70.571-57.429-128-128-128zM128 661.333c-23.509 0-42.667-19.157-42.667-42.667v-469.333c0-23.552 19.157-42.667 42.667-42.667h768c23.552 0 42.667 19.115 42.667 42.667v469.333c0 23.509-19.115 42.667-42.667 42.667h-170.667c-14.251 0-27.563 7.125-35.499 18.987l-72.661 109.013h-210.347l-72.661-109.013c-7.936-11.861-21.248-18.987-35.499-18.987h-170.667zM512 192c-117.632 0-213.333 95.701-213.333 213.333s95.701 213.333 213.333 213.333 213.333-95.701 213.333-213.333-95.701-213.333-213.333-213.333zM512 533.333c-70.571 0-128-57.429-128-128s57.429-128 128-128 128 57.429 128 128-57.429 128-128 128z" />
<glyph unicode="&#xe92b;" glyph-name="bookin" d="M520.661 56.32c-18.133 0-34.944 11.605-40.661 29.824l-51.328 162.731c-3.413 10.795-2.389 22.485 2.816 32.555l278.443 535.253c10.837 20.907 36.48 29.056 57.515 18.176l214.187-111.36c10.027-5.248 17.621-14.208 20.992-25.003 3.413-10.795 2.432-22.485-2.816-32.555l-278.4-535.296c-5.205-10.069-14.208-17.621-25.003-21.035l-162.816-51.328c-4.352-1.323-8.704-1.963-12.928-1.963zM515.328 257.749l33.195-105.259 105.259 33.195 250.581 481.792-138.453 72.021-250.581-481.749zM426.667 528.597h-384c-23.552 0-42.667 19.115-42.667 42.667s19.115 42.667 42.667 42.667h384c23.552 0 42.667-19.115 42.667-42.667s-19.115-42.667-42.667-42.667zM554.667 746.667h-512c-23.552 0-42.667 19.115-42.667 42.667s19.115 42.667 42.667 42.667h512c23.595 0 42.667-19.115 42.667-42.667s-19.072-42.667-42.667-42.667zM298.667 310.485h-256c-23.552 0-42.667 19.072-42.667 42.667s19.115 42.667 42.667 42.667h256c23.552 0 42.667-19.072 42.667-42.667s-19.115-42.667-42.667-42.667zM213.333 92.416h-170.667c-23.552 0-42.667 19.072-42.667 42.667s19.115 42.667 42.667 42.667h170.667c23.552 0 42.667-19.072 42.667-42.667s-19.115-42.667-42.667-42.667z" />
<glyph unicode="&#xe92c;" glyph-name="move" d="M512 160c-52.8 0-96-43.2-96-96s43.2-96 96-96c52.8 0 96 43.2 96 96s-43.2 96-96 96zM512 352c52.8 0 96 43.2 96 96s-43.2 96-96 96c-52.8 0-96-43.2-96-96s43.2-96 96-96zM512 736c52.8 0 96 43.2 96 96s-43.2 96-96 96c-52.8 0-96-43.2-96-96s43.2-96 96-96z" />
<glyph unicode="&#xe92d;" glyph-name="camera-off" d="M981.333-64c-10.923 0-21.845 4.181-30.165 12.501l-938.667 938.667c-16.683 16.683-16.683 43.648 0 60.331s43.648 16.683 60.331 0l938.667-938.667c16.683-16.683 16.683-43.648 0-60.331-8.32-8.32-19.243-12.501-30.165-12.501zM896 21.333h-768c-70.571 0-128 57.429-128 128v469.333c0 70.571 57.429 128 128 128h128c23.552 0 42.667-19.115 42.667-42.667s-19.115-42.667-42.667-42.667h-128c-23.509 0-42.667-19.157-42.667-42.667v-469.333c0-23.552 19.157-42.667 42.667-42.667h768c23.595 0 42.667-19.072 42.667-42.667s-19.072-42.667-42.667-42.667zM981.333 177.493c-23.595 0-42.667 19.072-42.667 42.667v398.507c0 23.509-19.115 42.667-42.667 42.667h-170.667c-14.251 0-27.563 7.125-35.499 18.987l-72.661 109.013h-233.173c-23.552 0-42.667 19.115-42.667 42.667s19.115 42.667 42.667 42.667h256c14.251 0 27.563-7.125 35.499-18.987l72.661-109.013h147.84c70.571 0 128-57.429 128-128v-398.507c0-23.595-19.072-42.667-42.667-42.667zM510.635 191.061c-42.581 0-84.139 12.757-120.021 37.333-97.067 66.432-121.984 199.467-55.595 296.533 15.019 21.931 33.707 40.619 55.595 55.595 19.541 13.269 46.037 8.277 59.307-11.136 13.312-19.456 8.32-45.995-11.136-59.307-13.141-8.96-24.363-20.181-33.365-33.323-39.851-58.24-24.875-138.027 33.365-177.92 28.203-19.328 62.293-26.496 95.872-20.181 33.579 6.272 62.72 25.301 81.963 53.547 13.312 19.413 39.851 24.405 59.349 11.179 19.456-13.312 24.448-39.893 11.179-59.349-32.171-47.061-80.725-78.763-136.704-89.259-13.269-2.517-26.581-3.712-39.808-3.712z" />
<glyph unicode="&#xe92e;" glyph-name="question" d="M512 928c-264.96 0-480-215.040-480-480s215.040-480 480-480c264.96 0 480 215.040 480 480s-215.040 480-480 480v0zM464 208h96v-96h-96v96zM659.36 484l-43.2-44.16c-34.56-35.040-56.16-63.84-56.16-135.84h-96v24c0 52.8 21.6 100.8 56.16 135.84l59.52 60.48c17.76 17.28 28.32 41.28 28.32 67.68 0 52.8-43.2 96-96 96s-96-43.2-96-96h-96c0 106.080 85.92 192 192 192s192-85.92 192-192c0-42.24-17.28-80.64-44.64-108v0z" />
<glyph unicode="&#xe92f;" glyph-name="cast" d="M251.691 64c-19.84 0-37.632 13.909-41.771 34.176-13.696 67.157-65.92 119.424-133.12 133.12-23.083 4.693-38.016 27.221-33.28 50.347 4.736 23.040 27.349 37.845 50.347 33.237 100.779-20.523 179.157-98.901 199.68-199.723 4.693-23.083-10.197-45.568-33.28-50.304-2.901-0.555-5.76-0.853-8.576-0.853zM424.491 64c-21.419 0-39.936 16.128-42.325 37.973-17.792 159.744-141.781 283.691-301.525 301.483-23.424 2.645-40.277 23.723-37.675 47.147s23.979 40.235 47.104 37.675c199.68-22.229 354.645-177.237 376.875-376.875 2.645-23.424-14.251-44.501-37.675-47.104-1.621-0.213-3.2-0.299-4.779-0.299zM853.333 64h-256c-23.595 0-42.667 19.072-42.667 42.667s19.072 42.667 42.667 42.667h256c23.552 0 42.667 19.115 42.667 42.667v512c0 23.509-19.115 42.667-42.667 42.667h-682.667c-23.509 0-42.667-19.157-42.667-42.667v-85.333c0-23.552-19.115-42.667-42.667-42.667s-42.667 19.115-42.667 42.667v85.333c0 70.571 57.429 128 128 128h682.667c70.571 0 128-57.429 128-128v-512c0-70.571-57.429-128-128-128zM85.333 64c-11.093 0-22.187 4.693-30.293 12.373-7.68 8.107-12.373 19.2-12.373 30.293 0 11.563 4.693 22.229 12.373 30.293 15.787 15.787 44.8 15.787 60.587 0 7.68-8.064 12.373-19.2 12.373-30.293s-4.693-22.187-12.373-30.293c-8.107-7.68-19.2-12.373-30.293-12.373z" />
<glyph unicode="&#xe930;" glyph-name="man" d="M569.786 662.19h-182.091l-48.243 265.81h289.635l-59.3-265.81zM494.133-32l-238.133 205.998 129.076 453.859h187.562l134.954-454.762-213.458-205.095zM595.799 628.279l183.837-246.897v-74.93h-72.336l-111.501 321.827z" />
<glyph unicode="&#xe931;" glyph-name="hot" d="M0 960h1024v-1024l-1024 1024zM567.031 828.649l-129.248-129.248 21.179-21.179 57.202 57.202 65.529-65.529-57.202-57.202 21.179-21.179 129.248 129.248-21.179 21.179-53.944-53.944-65.529 65.529 53.944 53.944-21.179 21.179zM760.179 640.569c-19.912 19.912-41.815 29.144-66.072 27.334-23.17-1.448-44.35-12.128-64.081-31.859-19.55-19.55-30.23-40.729-31.678-63.9-1.448-23.895 7.603-45.979 27.515-65.891 19.731-19.731 41.634-28.963 65.71-27.696 22.989 1.267 44.35 11.766 64.262 31.678s30.592 41.453 31.859 64.443c1.448 24.257-7.784 46.16-27.515 65.891zM741.534 621.925c13.395-13.395 19.55-27.877 18.102-43.807-1.629-15.749-9.956-31.316-25.162-46.522s-30.592-23.351-46.16-24.8c-15.749-1.267-30.411 4.707-43.807 18.102s-19.369 28.42-17.74 44.531c1.629 15.749 9.775 30.773 24.438 45.436 14.844 14.844 29.868 22.989 45.617 24.619 16.473 1.629 31.316-4.163 44.712-17.559zM830.595 565.084l-18.102-18.102 42.359-42.359-111.146-111.146 21.179-21.179 111.146 111.146 42.359-42.359 18.102 18.102-105.896 105.896z" />
<glyph unicode="&#xe932;" glyph-name="new" d="M0 960h1024v-1024l-1024 1024zM541.496 864.554l-129.248-129.248 21.179-21.179 94.492 94.492 0.724-0.724-29.868-159.116 20.636-20.636 129.248 129.248-21.36 21.36-93.225-93.225-0.724 0.724 29.325 157.125-21.179 21.179zM674.002 732.048l-129.248-129.248 96.302-96.302 18.102 18.102-75.123 75.123 39.1 39.1 67.701-67.701 18.102 18.102-67.701 67.701 35.842 35.842 72.046-72.046 18.102 18.102-93.225 93.225zM778.451 627.6l-92.139-166.357 22.627-22.627 122.55 71.865 0.724-0.724-72.046-122.369 22.446-22.446 166.538 91.958-23.895 23.895-122.55-74.037-0.724 0.724 72.77 123.817-21.903 21.903-123.817-72.77-0.724 0.724 74.037 122.55-23.895 23.895z" />
<glyph unicode="&#xe933;" glyph-name="checkout" d="M981.333 405.333h-469.333c-23.552 0-42.667 19.072-42.667 42.667 0 23.552 19.115 42.667 42.667 42.667h469.333c23.595 0 42.667-19.115 42.667-42.667 0-23.595-19.072-42.667-42.667-42.667zM981.333 789.333h-469.333c-23.552 0-42.667 19.115-42.667 42.667s19.115 42.667 42.667 42.667h469.333c23.595 0 42.667-19.115 42.667-42.667s-19.072-42.667-42.667-42.667zM981.333 64h-469.333c-23.552 0-42.667 19.072-42.667 42.667s19.115 42.667 42.667 42.667h469.333c23.595 0 42.667-19.072 42.667-42.667s-19.072-42.667-42.667-42.667zM142.123 687.701c-9.643 0-19.285 3.243-27.221 9.813l-99.328 82.347c-18.176 15.019-20.693 41.941-5.632 60.075s41.984 20.651 60.075 5.632l69.419-57.515 132.907 133.077c16.64 16.725 43.605 16.683 60.331 0.043 16.683-16.64 16.683-43.648 0.043-60.331l-160.384-160.597c-8.32-8.32-19.243-12.544-30.208-12.544zM142.123-37.675c-9.643 0-19.285 3.243-27.221 9.813l-99.328 82.347c-18.133 15.061-20.651 41.899-5.632 60.032 15.061 18.176 41.984 20.693 60.075 5.632l69.376-57.515 132.907 133.12c16.64 16.683 43.605 16.683 60.331 0.043 16.683-16.683 16.683-43.648 0.043-60.373l-160.341-160.597c-8.32-8.277-19.243-12.501-30.208-12.501zM163.499 285.653c-91.093 0-162.432 71.296-162.432 162.347s71.339 162.347 162.432 162.347 162.432-71.296 162.432-162.347-71.339-162.347-162.432-162.347zM163.499 525.013c-43.221 0-77.099-33.835-77.099-77.013s33.877-77.013 77.099-77.013 77.099 33.835 77.099 77.013c0 43.179-33.877 77.013-77.099 77.013z" />
<glyph unicode="&#xe934;" glyph-name="check-circle" d="M512.043-21.077c-0.128 0-0.213 0-0.341 0-258.731 0.128-469.163 210.773-469.035 469.589 0.171 258.688 210.688 469.077 469.333 469.077 0.085 0 0.171 0 0.256 0 66.133-0.043 130.347-13.696 190.763-40.619 21.504-9.6 31.189-34.816 21.589-56.32-9.557-21.504-34.688-31.147-56.32-21.632-49.408 22.016-101.973 33.195-156.075 33.237-0.085 0-0.128 0-0.213 0-211.627 0-383.915-172.117-384-383.787-0.085-211.755 172.032-384.085 383.787-384.213 0.085 0 0.171 0 0.299 0 102.485 0 198.827 39.893 271.317 112.299 72.576 72.491 112.555 168.917 112.597 271.445v39.253c0 23.552 19.072 42.667 42.667 42.667s42.667-19.115 42.667-42.667v-39.253c-0.085-125.397-48.939-243.243-137.643-331.819-88.619-88.533-206.379-137.259-331.648-137.259zM512 319.573c-11.307 0-22.187 4.48-30.165 12.501l-128 128c-16.683 16.683-16.683 43.648 0 60.331s43.648 16.683 60.331 0l97.835-97.792 396.501 396.843c16.683 16.725 43.648 16.683 60.331 0.043 16.683-16.683 16.683-43.648 0-60.331l-426.667-427.093c-7.979-7.979-18.816-12.501-30.165-12.501z" />
<glyph unicode="&#xe935;" glyph-name="check-square" d="M512 320c-10.923 0-21.845 4.181-30.165 12.501l-128 128c-16.683 16.683-16.683 43.648 0 60.331s43.648 16.683 60.331 0l97.835-97.835 396.501 396.501c16.683 16.683 43.648 16.683 60.331 0s16.683-43.648 0-60.331l-426.667-426.667c-8.32-8.32-19.243-12.501-30.165-12.501zM810.667 21.333h-597.333c-70.571 0-128 57.429-128 128v597.333c0 70.571 57.429 128 128 128h469.333c23.595 0 42.667-19.115 42.667-42.667s-19.072-42.667-42.667-42.667h-469.333c-23.509 0-42.667-19.157-42.667-42.667v-597.333c0-23.552 19.157-42.667 42.667-42.667h597.333c23.552 0 42.667 19.115 42.667 42.667v298.667c0 23.552 19.072 42.667 42.667 42.667s42.667-19.115 42.667-42.667v-298.667c0-70.571-57.429-128-128-128z" />
<glyph unicode="&#xe936;" glyph-name="battery" d="M725.333 149.333h-597.333c-70.571 0-128 57.429-128 128v341.333c0 70.571 57.429 128 128 128h597.333c70.571 0 128-57.429 128-128v-341.333c0-70.571-57.429-128-128-128zM128 661.333c-23.509 0-42.667-19.157-42.667-42.667v-341.333c0-23.552 19.157-42.667 42.667-42.667h597.333c23.552 0 42.667 19.115 42.667 42.667v341.333c0 23.509-19.115 42.667-42.667 42.667h-597.333zM981.333 362.667c-23.595 0-42.667 19.072-42.667 42.667v85.333c0 23.552 19.072 42.667 42.667 42.667s42.667-19.115 42.667-42.667v-85.333c0-23.595-19.072-42.667-42.667-42.667z" />
<glyph unicode="&#xe937;" glyph-name="woman" d="M652.119 504.64c6.355-3.2 15.728-8.32 28.119-15.36s26.689-16.96 42.894-29.76c16.204-12.8 34.156-29.28 53.855-49.44s39.875-45.44 60.528-75.84c20.652-30.4 41.464-66.4 62.434-108s40.987-89.92 60.051-144.96c-9.532-5.76-19.223-12.48-29.072-20.16s-19.54-14.56-29.072-20.64c-9.532-6.080-19.382-10.88-29.549-14.4s-20.335-4.32-30.502-2.4c-27.325 5.76-51.631 8.32-72.919 7.68s-40.828-3.040-58.621-7.2c-17.793-4.16-34.315-9.44-49.566-15.84s-30.026-12.64-44.323-18.72c-14.298-6.080-28.596-11.2-42.894-15.36s-29.708-6.24-46.23-6.24c-35.586 0.64-69.901 5.92-102.945 15.84s-64.499 20-94.366 30.24c-29.867 10.24-57.668 18.080-83.404 23.52s-49.089 4-70.060-4.32c-12.709-5.12-25.736-5.44-39.081-0.96s-25.418 10.24-36.221 17.28c-12.709 8.32-25.101 18.88-37.174 31.68 23.512 72.96 50.201 135.36 80.068 187.2s58.621 94.56 86.264 128.16c27.643 33.6 52.108 59.040 73.396 76.32s34.791 27.84 40.511 31.68c5.719 3.2 8.896 11.040 9.532 23.52s0.318 25.12-0.953 37.92c-1.906 15.36-4.766 32.32-8.579 50.88l-140.119 283.2 167.762 27.84c17.157-32.64 33.838-57.44 50.043-74.4s31.773-28.48 46.706-34.56c14.933-6.080 29.072-7.68 42.417-4.8s25.736 8.48 37.174 16.8c26.689 19.2 51.79 51.52 75.302 96.96l168.715-27.84c-12.709-30.080-26.689-61.12-41.94-93.12-12.709-27.52-27.484-57.92-44.323-91.2s-34.791-66.24-53.855-98.88c-7.626-21.76-11.915-39.68-12.868-53.76s-0.477-25.6 1.43-34.56c2.542-10.24 6.355-18.24 11.438-24z" />
<glyph unicode="&#xe938;" glyph-name="battery-charging" d="M725.333 149.333h-136.064c-23.595 0-42.667 19.072-42.667 42.667s19.072 42.667 42.667 42.667h136.064c23.552 0 42.667 19.115 42.667 42.667v341.333c0 23.509-19.115 42.667-42.667 42.667h-85.333c-23.595 0-42.667 19.115-42.667 42.667s19.072 42.667 42.667 42.667h85.333c70.571 0 128-57.429 128-128v-341.333c0-70.571-57.429-128-128-128zM213.333 149.333h-85.333c-70.571 0-128 57.429-128 128v341.333c0 70.571 57.429 128 128 128h136.107c23.552 0 42.667-19.115 42.667-42.667s-19.115-42.667-42.667-42.667h-136.107c-23.509 0-42.667-19.157-42.667-42.667v-341.333c0-23.552 19.157-42.667 42.667-42.667h85.333c23.552 0 42.667-19.072 42.667-42.667s-19.115-42.667-42.667-42.667zM981.333 362.667c-23.595 0-42.667 19.072-42.667 42.667v85.333c0 23.552 19.072 42.667 42.667 42.667s42.667-19.115 42.667-42.667v-85.333c0-23.595-19.072-42.667-42.667-42.667zM383.957 149.333c-8.107 0-16.341 2.347-23.637 7.168-19.584 13.099-24.875 39.552-11.819 59.179l126.421 189.653h-176.256c-15.744 0-30.208 8.661-37.632 22.528s-6.613 30.72 2.133 43.776l170.667 256c13.056 19.584 39.509 24.96 59.179 11.819 19.584-13.056 24.875-39.552 11.819-59.179l-126.421-189.611h176.256c15.744 0 30.208-8.661 37.632-22.528s6.571-30.72-2.133-43.776l-170.667-256c-8.235-12.373-21.76-19.029-35.541-19.029z" />
<glyph unicode="&#xe939;" glyph-name="at-sign" d="M512 234.667c-117.632 0-213.333 95.701-213.333 213.333s95.701 213.333 213.333 213.333 213.333-95.701 213.333-213.333-95.701-213.333-213.333-213.333zM512 576c-70.571 0-128-57.429-128-128s57.429-128 128-128 128 57.429 128 128-57.429 128-128 128zM511.957-21.333c-125.312 0-243.157 48.811-331.776 137.429-88.661 88.661-137.515 206.507-137.515 331.861s48.811 243.243 137.429 331.861c88.661 88.661 206.507 137.472 331.904 137.515 258.816 0 469.333-210.56 469.333-469.333v-42.667c0-94.123-76.544-170.667-170.667-170.667s-170.667 76.544-170.667 170.667v213.333c0 23.552 19.072 42.667 42.667 42.667s42.667-19.115 42.667-42.667v-213.333c0-47.061 38.272-85.333 85.333-85.333s85.333 38.272 85.333 85.333v42.667c0 211.712-172.288 384-384 384-102.571 0-199.040-39.979-271.531-112.512-72.533-72.533-112.469-168.96-112.469-271.531s39.979-198.997 112.512-271.488c72.533-72.533 168.917-112.469 271.445-112.469 0 0 0.043 0 0.085 0 83.925 0 166.869 28.075 233.429 79.104 18.773 14.336 45.483 10.752 59.819-7.936s10.795-45.483-7.936-59.819c-81.408-62.336-182.741-96.683-285.355-96.683 0 0-0.043 0-0.043 0z" />
<glyph unicode="&#xe93a;" glyph-name="clipboard" d="M768-21.333h-512c-70.571 0-128 57.429-128 128v597.333c0 70.571 57.429 128 128 128h85.333c23.552 0 42.667-19.115 42.667-42.667s-19.115-42.667-42.667-42.667h-85.333c-23.509 0-42.667-19.157-42.667-42.667v-597.333c0-23.552 19.157-42.667 42.667-42.667h512c23.552 0 42.667 19.115 42.667 42.667v597.333c0 23.509-19.115 42.667-42.667 42.667h-85.333c-23.595 0-42.667 19.115-42.667 42.667s19.072 42.667 42.667 42.667h85.333c70.571 0 128-57.429 128-128v-597.333c0-70.571-57.429-128-128-128zM640 661.333h-256c-47.061 0-85.333 38.272-85.333 85.333v85.333c0 47.061 38.272 85.333 85.333 85.333h256c47.061 0 85.333-38.272 85.333-85.333v-85.333c0-47.061-38.272-85.333-85.333-85.333zM384 832v-85.333h256.043l-0.043 85.333h-256z" />
<glyph unicode="&#xe93b;" glyph-name="clock" d="M512-21.333c-258.773 0-469.333 210.56-469.333 469.333s210.56 469.333 469.333 469.333 469.333-210.56 469.333-469.333-210.56-469.333-469.333-469.333zM512 832c-211.712 0-384-172.288-384-384 0-211.755 172.288-384 384-384 211.755 0 384 172.245 384 384 0 211.712-172.245 384-384 384zM682.624 320c-6.4 0-12.928 1.451-19.029 4.48l-170.667 85.333c-14.464 7.253-23.595 22.016-23.595 38.187v256c0 23.552 19.115 42.667 42.667 42.667 23.595 0 42.667-19.115 42.667-42.667v-229.632l147.072-73.557c21.077-10.539 29.611-36.181 19.072-57.259-7.467-14.933-22.528-23.552-38.187-23.552z" />
<glyph unicode="&#xe93c;" glyph-name="cloud-drizzle" d="M341.333 21.333c-23.552 0-42.667 19.072-42.667 42.667v85.333c0 23.595 19.115 42.667 42.667 42.667s42.667-19.072 42.667-42.667v-85.333c0-23.595-19.115-42.667-42.667-42.667zM341.333 277.333c-23.552 0-42.667 19.072-42.667 42.667v85.333c0 23.552 19.115 42.667 42.667 42.667s42.667-19.115 42.667-42.667v-85.333c0-23.595-19.115-42.667-42.667-42.667zM682.667 21.333c-23.595 0-42.667 19.072-42.667 42.667v85.333c0 23.595 19.072 42.667 42.667 42.667s42.667-19.072 42.667-42.667v-85.333c0-23.595-19.072-42.667-42.667-42.667zM682.667 277.333c-23.595 0-42.667 19.072-42.667 42.667v85.333c0 23.552 19.072 42.667 42.667 42.667s42.667-19.115 42.667-42.667v-85.333c0-23.595-19.072-42.667-42.667-42.667zM512-64c-23.552 0-42.667 19.072-42.667 42.667v85.333c0 23.595 19.115 42.667 42.667 42.667 23.595 0 42.667-19.072 42.667-42.667v-85.333c0-23.595-19.072-42.667-42.667-42.667zM512 192c-23.552 0-42.667 19.072-42.667 42.667v85.333c0 23.595 19.115 42.667 42.667 42.667 23.595 0 42.667-19.072 42.667-42.667v-85.333c0-23.595-19.072-42.667-42.667-42.667zM853.376 209.92c-16.469 0-32.128 9.557-39.125 25.557-9.472 21.589 0.384 46.763 21.973 56.192 41.771 18.304 73.856 51.755 90.496 94.208 16.597 42.453 15.659 88.832-2.645 130.603-27.179 61.995-88.448 102.101-156.117 102.187h-53.717c-19.456 0-36.437 13.184-41.301 32-41.259 159.445-204.331 255.659-363.904 214.485-159.403-41.173-255.659-204.416-214.485-363.819 16.043-62.208 52.523-118.571 102.741-158.635 18.432-14.72 21.419-41.557 6.699-59.947-14.72-18.432-41.6-21.419-59.947-6.699-64.555 51.541-111.445 123.989-132.096 203.989-52.949 204.928 70.784 414.805 275.797 467.755 194.176 50.133 392.533-58.155 458.027-243.797h22.229c101.589-0.128 193.493-60.288 234.24-153.301 27.435-62.635 28.843-132.224 3.925-195.925-24.875-63.701-73.088-113.877-135.723-141.312-5.547-2.432-11.349-3.541-17.067-3.541z" />
<glyph unicode="&#xe93d;" glyph-name="cloud-lightning" d="M810.624 196.267c-19.883 0-37.675 13.952-41.771 34.176-4.693 23.083 10.197 45.611 33.28 50.304 44.672 9.088 83.157 35.029 108.331 73.045s34.048 83.541 24.96 128.213c-16.043 79.189-86.357 136.661-167.211 136.661-0.043 0-0.128 0-0.171 0h-53.803c-19.456 0-36.437 13.184-41.301 32-41.259 159.445-204.501 255.531-363.904 214.485-77.227-19.968-142.080-68.779-182.613-137.515-40.491-68.736-51.84-149.12-31.872-226.347 20.395-79.019 73.088-147.072 144.555-186.624 20.608-11.435 28.075-37.376 16.683-57.984-11.435-20.651-37.333-28.075-57.984-16.683-91.861 50.859-159.616 138.325-185.813 239.957-25.643 99.328-11.093 202.667 41.003 291.029s135.467 151.168 234.752 176.811c194.048 50.176 392.533-58.112 458.027-243.797h22.229c0.085 0 0.171 0 0.256 0 121.259 0 226.688-86.229 250.837-205.056 13.611-66.987 0.341-135.253-37.461-192.299-37.76-57.003-95.445-95.915-162.475-109.483-2.859-0.64-5.76-0.896-8.533-0.896zM469.291-64c-8.107 0-16.341 2.347-23.637 7.168-19.584 13.099-24.875 39.552-11.819 59.179l126.464 189.653h-176.299c-15.744 0-30.208 8.661-37.632 22.528s-6.613 30.72 2.133 43.776l170.667 256c13.056 19.584 39.509 24.96 59.179 11.819 19.627-13.056 24.917-39.552 11.819-59.179l-126.421-189.611h176.256c15.744 0 30.208-8.661 37.632-22.528s6.571-30.72-2.133-43.776l-170.667-256c-8.235-12.373-21.76-19.029-35.541-19.029z" />
<glyph unicode="&#xe93e;" glyph-name="cloud-off" d="M377.771 63.957c-139.136 0-267.477 75.52-335.275 198.187-49.664 89.771-61.355 193.493-32.981 292.053 28.373 98.603 93.44 180.181 183.211 229.803 20.608 11.392 46.592 3.925 57.941-16.683 11.435-20.651 3.925-46.592-16.683-57.984-69.803-38.613-120.405-102.101-142.507-178.731-22.059-76.672-12.971-157.355 25.643-227.115 53.547-96.896 154.581-157.013 266.197-154.155h384.683c19.797 0 39.296 3.456 57.941 10.197 22.229 8.021 46.635-3.371 54.656-25.515 8.064-22.187-3.371-46.635-25.515-54.656-28.032-10.197-57.344-15.36-87.083-15.36h-384c-2.091-0.043-4.181-0.043-6.229-0.043zM964.651 194.133c-5.589 0-11.221 1.067-16.683 3.371-21.675 9.216-31.829 34.261-22.613 55.979 17.792 41.941 18.176 88.32 1.067 130.603s-49.664 75.349-91.605 93.099c-21.163 8.96-43.52 13.483-66.475 13.483-0.128 0-0.171 0-0.299 0h-53.803c-19.499 0-36.523 13.269-41.344 32.171-31.189 122.795-137.003 212.821-263.211 224-23.467 2.091-40.832 22.784-38.741 46.251s22.997 40.448 46.251 38.741c151.040-13.355 279.339-114.517 328.704-255.829h22.101c0.128 0 0.256 0 0.384 0 34.432 0 68.011-6.827 99.755-20.309 62.933-26.667 111.744-76.245 137.429-139.605s25.088-132.992-1.579-195.968c-6.955-16.256-22.741-25.984-39.339-25.984zM981.333-64c-10.923 0-21.845 4.181-30.165 12.501l-938.667 938.667c-16.683 16.683-16.683 43.648 0 60.331s43.648 16.683 60.331 0l938.667-938.667c16.683-16.683 16.683-43.648 0-60.331-8.32-8.32-19.243-12.501-30.165-12.501z" />
<glyph unicode="&#xe93f;" glyph-name="cloud-rain" d="M682.667 21.333c-23.595 0-42.667 19.072-42.667 42.667v341.333c0 23.552 19.072 42.667 42.667 42.667s42.667-19.115 42.667-42.667v-341.333c0-23.595-19.072-42.667-42.667-42.667zM341.333 21.333c-23.552 0-42.667 19.072-42.667 42.667v341.333c0 23.552 19.115 42.667 42.667 42.667s42.667-19.115 42.667-42.667v-341.333c0-23.595-19.115-42.667-42.667-42.667zM512-64c-23.552 0-42.667 19.072-42.667 42.667v341.333c0 23.595 19.115 42.667 42.667 42.667 23.595 0 42.667-19.072 42.667-42.667v-341.333c0-23.595-19.072-42.667-42.667-42.667zM853.376 209.92c-16.469 0-32.128 9.557-39.125 25.557-9.472 21.589 0.384 46.763 21.973 56.192 41.771 18.304 73.856 51.755 90.496 94.208 16.597 42.453 15.659 88.832-2.645 130.603-27.179 61.995-88.448 102.101-156.117 102.187h-53.717c-19.456 0-36.437 13.184-41.301 32-41.259 159.445-204.331 255.659-363.904 214.485-159.403-41.173-255.659-204.416-214.485-363.819 16.043-62.208 52.523-118.571 102.741-158.635 18.432-14.72 21.419-41.557 6.699-59.947-14.72-18.432-41.6-21.419-59.947-6.699-64.555 51.541-111.445 123.989-132.096 203.989-52.949 204.928 70.784 414.805 275.797 467.755 194.176 50.133 392.533-58.155 458.027-243.797h22.229c101.589-0.128 193.493-60.288 234.24-153.301 27.435-62.635 28.843-132.224 3.925-195.925-24.875-63.701-73.088-113.877-135.723-141.312-5.547-2.432-11.349-3.541-17.067-3.541z" />
<glyph unicode="&#xe940;" glyph-name="cloud-snow" d="M853.376 167.253c-16.469 0-32.128 9.557-39.125 25.557-9.472 21.589 0.384 46.763 21.973 56.192 41.771 18.304 73.856 51.755 90.496 94.208 16.597 42.453 15.659 88.832-2.645 130.603-27.179 61.995-88.448 102.101-156.117 102.187h-53.717c-19.456 0-36.437 13.184-41.301 32-41.259 159.445-204.331 255.573-363.904 214.485-159.403-41.173-255.659-204.416-214.485-363.819 16.043-62.208 52.523-118.571 102.741-158.635 18.432-14.72 21.419-41.557 6.699-59.947-14.72-18.432-41.6-21.376-59.947-6.699-64.555 51.541-111.445 123.989-132.096 203.989-52.949 204.928 70.784 414.805 275.797 467.755 194.176 50.133 392.533-58.112 458.027-243.797h22.229c101.589-0.128 193.493-60.288 234.24-153.301 27.435-62.635 28.843-132.224 3.925-195.925-24.875-63.701-73.088-113.877-135.723-141.312-5.547-2.432-11.349-3.541-17.067-3.541zM341.333 234.667c-11.093 0-22.187 4.693-30.293 12.373-7.68 8.107-12.373 19.2-12.373 30.293s4.693 22.229 12.373 30.293c16.213 15.787 44.8 15.787 60.587 0 7.68-8.064 12.373-18.731 12.373-30.293 0-11.52-4.693-22.187-12.373-30.293-8.107-7.68-19.2-12.373-30.293-12.373zM341.333 64c-11.093 0-22.187 4.693-30.293 12.373-7.68 8.107-12.373 19.2-12.373 30.293s4.693 22.229 12.373 30.293c15.787 15.787 44.8 15.787 60.587 0 7.68-8.064 12.373-19.2 12.373-30.293s-4.693-22.187-12.373-30.293c-8.107-7.68-19.2-12.373-30.293-12.373zM512 149.333c-11.093 0-22.187 4.693-30.293 12.373-7.68 8.107-12.373 19.2-12.373 30.293s4.693 22.229 12.373 30.293c16.213 15.787 44.8 15.787 60.587 0 7.68-8.064 12.373-19.2 12.373-30.293s-4.693-22.187-12.373-30.293c-8.107-7.68-18.773-12.373-30.293-12.373zM512-21.333c-11.52 0-22.187 4.693-30.293 12.373-7.68 8.107-12.373 19.2-12.373 30.293s4.693 22.229 12.373 30.293c15.36 15.787 44.373 15.787 60.587 0 7.68-8.064 12.373-19.2 12.373-30.293s-4.693-22.187-12.373-30.293c-8.107-7.68-19.2-12.373-30.293-12.373zM682.667 234.667c-11.093 0-22.229 4.693-30.293 12.373-7.723 8.107-12.373 19.2-12.373 30.293s4.651 22.229 12.373 30.293c16.213 15.787 44.8 15.787 60.587 0 7.68-8.064 12.373-19.2 12.373-30.293s-4.693-22.187-12.373-30.293c-8.107-7.68-19.2-12.373-30.293-12.373zM682.667 64c-11.093 0-22.229 4.693-30.293 12.373-7.723 8.107-12.373 19.2-12.373 30.293s4.651 22.229 12.373 30.293c15.787 15.787 44.373 15.787 60.587 0 7.68-8.064 12.373-19.2 12.373-30.293s-4.693-22.187-12.373-30.293c-8.107-7.68-19.2-12.373-30.293-12.373z" />
<glyph unicode="&#xe941;" glyph-name="cloud" d="M768 64h-384.256c-175.104 0-328.021 118.4-371.797 288-52.949 205.013 70.784 414.891 275.797 467.797 31.531 8.149 63.915 12.288 96.256 12.288 163.712 0 308.053-103.765 361.813-256.085h22.187c141.184 0 256-114.816 256-256s-114.816-256-256-256zM384 746.752c-25.131 0-50.304-3.2-74.88-9.557-159.445-41.173-255.701-204.416-214.528-363.861 34.048-131.883 152.917-224 289.152-224v-42.667l0.213 42.667h384.043c94.123 0 170.667 76.544 170.667 170.667s-76.544 170.667-170.667 170.667h-53.76c-19.456 0-36.437 13.184-41.301 32-34.091 131.925-152.917 224.085-288.939 224.085z" />
<glyph unicode="&#xe942;" glyph-name="code" d="M682.667 149.333c-10.923 0-21.845 4.181-30.165 12.501-16.683 16.683-16.683 43.648 0 60.331l225.835 225.835-225.835 225.835c-16.683 16.683-16.683 43.648 0 60.331s43.648 16.683 60.331 0l256-256c16.683-16.683 16.683-43.648 0-60.331l-256-256c-8.32-8.32-19.243-12.501-30.165-12.501zM341.333 149.333c-10.923 0-21.845 4.181-30.165 12.501l-256 256c-16.683 16.683-16.683 43.648 0 60.331l256 256c16.683 16.683 43.648 16.683 60.331 0s16.683-43.648 0-60.331l-225.835-225.835 225.835-225.835c16.683-16.683 16.683-43.648 0-60.331-8.32-8.32-19.243-12.501-30.165-12.501z" />
<glyph unicode="&#xe943;" glyph-name="codepen" d="M558.545 635.749l197.509-131.673 148.184 98.455c0.12 0.084 0.241 0.168 0.362 0.251l-346.055 224.936v-191.969zM465.455 635.811v191.907l-346.032-224.921c0.129-0.088 0.257-0.177 0.385-0.266l148.105-98.414 197.542 131.694zM352.354 448.006l159.646-106.083 159.67 106.087-159.67 106.068-159.646-106.071zM930.909 387.506v120.925l-90.694-60.463 90.694-60.463zM904.604 293.264c-0.122 0.083-0.244 0.167-0.365 0.252l-148.115 98.392-197.578-131.719v-191.902l346.058 224.976zM119.432 293.24l346.022-224.953v191.933l-197.533 131.688-148.16-98.44c-0.11-0.077-0.219-0.153-0.329-0.229zM93.091 387.568l90.671 60.447-90.671 60.447v-120.894zM507.487-63.784c-6.448 0.62-12.513 2.555-17.921 5.534-0.993 0.543-1.972 1.124-2.933 1.744l-465.455 302.545c-13.219 8.611-21.178 23.273-21.178 39.052v325.818c0 15.732 7.959 30.441 21.178 39.005l465.455 302.545c15.407 10.054 35.328 10.054 50.735 0l465.455-302.545c13.219-8.564 21.178-23.273 21.178-39.005v-325.818c0-15.779-7.959-30.441-21.178-39.052l-465.455-302.545c-7.727-4.98-16.57-7.494-25.367-7.494-1.504 0-3.010 0.074-4.512 0.22z" />
<glyph unicode="&#xe944;" glyph-name="command" d="M768 21.333c-94.123 0-170.667 76.544-170.667 170.667v85.333h-170.667v-85.333c0-94.123-76.544-170.667-170.667-170.667s-170.667 76.544-170.667 170.667 76.544 170.667 170.667 170.667h85.333v170.667h-85.333c-94.123 0-170.667 76.544-170.667 170.667s76.544 170.667 170.667 170.667 170.667-76.544 170.667-170.667v-85.333h170.667v85.333c0 94.123 76.544 170.667 170.667 170.667s170.667-76.544 170.667-170.667-76.544-170.667-170.667-170.667h-85.333v-170.667h85.333c94.123 0 170.667-76.544 170.667-170.667s-76.544-170.667-170.667-170.667zM682.667 277.333v-85.333c0-47.061 38.272-85.333 85.333-85.333s85.333 38.272 85.333 85.333-38.272 85.333-85.333 85.333h-85.333zM256 277.333c-47.061 0-85.333-38.272-85.333-85.333s38.272-85.333 85.333-85.333 85.333 38.272 85.333 85.333v85.333h-85.333zM426.667 362.667h170.667v170.667h-170.667v-170.667zM682.667 618.667h85.333c47.061 0 85.333 38.272 85.333 85.333s-38.272 85.333-85.333 85.333-85.333-38.272-85.333-85.333v-85.333zM256 789.333c-47.061 0-85.333-38.272-85.333-85.333s38.272-85.333 85.333-85.333h85.333v85.333c0 47.061-38.272 85.333-85.333 85.333z" />
<glyph unicode="&#xe945;" glyph-name="compass" d="M512-21.333c-258.773 0-469.333 210.56-469.333 469.333s210.56 469.333 469.333 469.333 469.333-210.56 469.333-469.333-210.56-469.333-469.333-469.333zM512 832c-211.712 0-384-172.288-384-384 0-211.755 172.288-384 384-384 211.755 0 384 172.245 384 384 0 211.712-172.245 384-384 384zM331.093 224.427c-11.136 0-22.059 4.395-30.165 12.501-11.435 11.435-15.403 28.331-10.325 43.648l90.453 271.36c4.267 12.715 14.251 22.741 26.965 26.965l271.36 90.453c15.275 5.12 32.256 1.109 43.648-10.325 11.435-11.435 15.403-28.331 10.283-43.648l-90.453-271.36c-4.224-12.757-14.208-22.741-26.965-26.965l-271.36-90.453c-4.352-1.493-8.917-2.176-13.44-2.176zM455.253 504.747l-56.704-170.197 170.155 56.747 56.747 170.155-170.197-56.704z" />
<glyph unicode="&#xe946;" glyph-name="copy" d="M853.333-21.333h-384c-70.571 0-128 57.429-128 128v384c0 70.571 57.429 128 128 128h384c70.571 0 128-57.429 128-128v-384c0-70.571-57.429-128-128-128zM469.333 533.333c-23.509 0-42.667-19.157-42.667-42.667v-384c0-23.552 19.157-42.667 42.667-42.667h384c23.552 0 42.667 19.115 42.667 42.667v384c0 23.509-19.115 42.667-42.667 42.667h-384zM213.333 277.333h-42.667c-70.571 0-128 57.429-128 128v384c0 70.571 57.429 128 128 128h384c70.571 0 128-57.429 128-128v-42.667c0-23.552-19.072-42.667-42.667-42.667s-42.667 19.115-42.667 42.667v42.667c0 23.509-19.115 42.667-42.667 42.667h-384c-23.509 0-42.667-19.157-42.667-42.667v-384c0-23.552 19.157-42.667 42.667-42.667h42.667c23.552 0 42.667-19.072 42.667-42.667s-19.115-42.667-42.667-42.667z" />
<glyph unicode="&#xe947;" glyph-name="corner-down-left" d="M384 64c-10.923 0-21.845 4.181-30.165 12.501l-213.333 213.333c-16.683 16.683-16.683 43.648 0 60.331l213.333 213.333c16.683 16.683 43.648 16.683 60.331 0s16.683-43.648 0-60.331l-183.168-183.168 183.168-183.168c16.683-16.683 16.683-43.648 0-60.331-8.32-8.32-19.243-12.501-30.165-12.501zM682.667 277.333h-512c-23.552 0-42.667 19.072-42.667 42.667s19.115 42.667 42.667 42.667h512c70.571 0 128 57.429 128 128v298.667c0 23.552 19.072 42.667 42.667 42.667s42.667-19.115 42.667-42.667v-298.667c0-117.632-95.701-213.333-213.333-213.333z" />
<glyph unicode="&#xe948;" glyph-name="corner-down-right" d="M640 64c-10.923 0-21.845 4.181-30.165 12.501-16.683 16.683-16.683 43.648 0 60.331l183.168 183.168-183.168 183.168c-16.683 16.683-16.683 43.648 0 60.331s43.648 16.683 60.331 0l213.333-213.333c16.683-16.683 16.683-43.648 0-60.331l-213.333-213.333c-8.32-8.32-19.243-12.501-30.165-12.501zM853.333 277.333h-512c-117.632 0-213.333 95.701-213.333 213.333v298.667c0 23.552 19.115 42.667 42.667 42.667s42.667-19.115 42.667-42.667v-298.667c0-70.571 57.429-128 128-128h512c23.595 0 42.667-19.072 42.667-42.667s-19.072-42.667-42.667-42.667z" />
<glyph unicode="&#xe949;" glyph-name="corner-left-down" d="M384 64c-10.923 0-21.845 4.181-30.165 12.501l-213.333 213.333c-16.683 16.683-16.683 43.648 0 60.331s43.648 16.683 60.331 0l183.168-183.168 183.168 183.168c16.683 16.683 43.648 16.683 60.331 0s16.683-43.648 0-60.331l-213.333-213.333c-8.32-8.32-19.243-12.501-30.165-12.501zM384 64c-23.552 0-42.667 19.072-42.667 42.667v512c0 117.632 95.701 213.333 213.333 213.333h298.667c23.595 0 42.667-19.115 42.667-42.667s-19.072-42.667-42.667-42.667h-298.667c-70.571 0-128-57.429-128-128v-512c0-23.595-19.115-42.667-42.667-42.667z" />
<glyph unicode="&#xe94a;" glyph-name="corner-left-up" d="M597.333 533.333c-10.923 0-21.845 4.181-30.165 12.501l-183.168 183.168-183.168-183.168c-16.683-16.683-43.648-16.683-60.331 0s-16.683 43.648 0 60.331l213.333 213.333c16.683 16.683 43.648 16.683 60.331 0l213.333-213.333c16.683-16.683 16.683-43.648 0-60.331-8.32-8.32-19.243-12.501-30.165-12.501zM853.333 64h-298.667c-117.632 0-213.333 95.701-213.333 213.333v512c0 23.552 19.115 42.667 42.667 42.667s42.667-19.115 42.667-42.667v-512c0-70.571 57.429-128 128-128h298.667c23.595 0 42.667-19.072 42.667-42.667s-19.072-42.667-42.667-42.667z" />
<glyph unicode="&#xe94b;" glyph-name="corner-right-down" d="M640 64c-10.923 0-21.845 4.181-30.165 12.501l-213.333 213.333c-16.683 16.683-16.683 43.648 0 60.331s43.648 16.683 60.331 0l183.168-183.168 183.168 183.168c16.683 16.683 43.648 16.683 60.331 0s16.683-43.648 0-60.331l-213.333-213.333c-8.32-8.32-19.243-12.501-30.165-12.501zM640 64c-23.595 0-42.667 19.072-42.667 42.667v512c0 70.571-57.429 128-128 128h-298.667c-23.552 0-42.667 19.115-42.667 42.667s19.115 42.667 42.667 42.667h298.667c117.632 0 213.333-95.701 213.333-213.333v-512c0-23.595-19.072-42.667-42.667-42.667z" />
<glyph unicode="&#xe94c;" glyph-name="corner-right-up" d="M853.333 533.333c-10.923 0-21.845 4.181-30.165 12.501l-183.168 183.168-183.168-183.168c-16.683-16.683-43.648-16.683-60.331 0s-16.683 43.648 0 60.331l213.333 213.333c16.683 16.683 43.648 16.683 60.331 0l213.333-213.333c16.683-16.683 16.683-43.648 0-60.331-8.32-8.32-19.243-12.501-30.165-12.501zM469.333 64h-298.667c-23.552 0-42.667 19.072-42.667 42.667s19.115 42.667 42.667 42.667h298.667c70.571 0 128 57.429 128 128v512c0 23.552 19.072 42.667 42.667 42.667s42.667-19.115 42.667-42.667v-512c0-117.632-95.701-213.333-213.333-213.333z" />
<glyph unicode="&#xe94d;" glyph-name="corner-up-left" d="M384 320c-10.923 0-21.845 4.181-30.165 12.501l-213.333 213.333c-16.683 16.683-16.683 43.648 0 60.331l213.333 213.333c16.683 16.683 43.648 16.683 60.331 0s16.683-43.648 0-60.331l-183.168-183.168 183.168-183.168c16.683-16.683 16.683-43.648 0-60.331-8.32-8.32-19.243-12.501-30.165-12.501zM853.333 64c-23.595 0-42.667 19.072-42.667 42.667v298.667c0 70.571-57.429 128-128 128h-512c-23.552 0-42.667 19.115-42.667 42.667s19.115 42.667 42.667 42.667h512c117.632 0 213.333-95.701 213.333-213.333v-298.667c0-23.595-19.072-42.667-42.667-42.667z" />
<glyph unicode="&#xe94e;" glyph-name="corner-up-right" d="M640 320c-10.923 0-21.845 4.181-30.165 12.501-16.683 16.683-16.683 43.648 0 60.331l183.168 183.168-183.168 183.168c-16.683 16.683-16.683 43.648 0 60.331s43.648 16.683 60.331 0l213.333-213.333c16.683-16.683 16.683-43.648 0-60.331l-213.333-213.333c-8.32-8.32-19.243-12.501-30.165-12.501zM170.667 64c-23.552 0-42.667 19.072-42.667 42.667v298.667c0 117.632 95.701 213.333 213.333 213.333h512c23.595 0 42.667-19.115 42.667-42.667s-19.072-42.667-42.667-42.667h-512c-70.571 0-128-57.429-128-128v-298.667c0-23.595-19.115-42.667-42.667-42.667z" />
<glyph unicode="&#xe94f;" glyph-name="cpu" d="M768 64h-512c-70.571 0-128 57.429-128 128v512c0 70.571 57.429 128 128 128h512c70.571 0 128-57.429 128-128v-512c0-70.571-57.429-128-128-128zM256 746.667c-23.509 0-42.667-19.157-42.667-42.667v-512c0-23.552 19.157-42.667 42.667-42.667h512c23.552 0 42.667 19.115 42.667 42.667v512c0 23.509-19.115 42.667-42.667 42.667h-512zM640 277.333h-256c-23.552 0-42.667 19.072-42.667 42.667v256c0 23.552 19.115 42.667 42.667 42.667h256c23.595 0 42.667-19.115 42.667-42.667v-256c0-23.595-19.072-42.667-42.667-42.667zM426.667 362.667h170.667v170.667h-170.667v-170.667zM384 746.667c-23.552 0-42.667 19.115-42.667 42.667v128c0 23.552 19.115 42.667 42.667 42.667s42.667-19.115 42.667-42.667v-128c0-23.552-19.115-42.667-42.667-42.667zM640 746.667c-23.595 0-42.667 19.115-42.667 42.667v128c0 23.552 19.072 42.667 42.667 42.667s42.667-19.115 42.667-42.667v-128c0-23.552-19.072-42.667-42.667-42.667zM384-64c-23.552 0-42.667 19.072-42.667 42.667v128c0 23.595 19.115 42.667 42.667 42.667s42.667-19.072 42.667-42.667v-128c0-23.595-19.115-42.667-42.667-42.667zM640-64c-23.595 0-42.667 19.072-42.667 42.667v128c0 23.595 19.072 42.667 42.667 42.667s42.667-19.072 42.667-42.667v-128c0-23.595-19.072-42.667-42.667-42.667zM981.333 533.333h-128c-23.595 0-42.667 19.115-42.667 42.667s19.072 42.667 42.667 42.667h128c23.595 0 42.667-19.115 42.667-42.667s-19.072-42.667-42.667-42.667zM981.333 320h-128c-23.595 0-42.667 19.072-42.667 42.667s19.072 42.667 42.667 42.667h128c23.595 0 42.667-19.072 42.667-42.667s-19.072-42.667-42.667-42.667zM170.667 533.333h-128c-23.552 0-42.667 19.115-42.667 42.667s19.115 42.667 42.667 42.667h128c23.552 0 42.667-19.115 42.667-42.667s-19.115-42.667-42.667-42.667zM170.667 320h-128c-23.552 0-42.667 19.072-42.667 42.667s19.115 42.667 42.667 42.667h128c23.552 0 42.667-19.072 42.667-42.667s-19.115-42.667-42.667-42.667z" />
<glyph unicode="&#xe950;" glyph-name="credit-card" d="M938.667 576v128c0 23.509-19.115 42.667-42.667 42.667h-768c-23.509 0-42.667-19.157-42.667-42.667v-128h853.333zM938.667 490.667h-853.333v-298.667c0-23.552 19.157-42.667 42.667-42.667h768c23.552 0 42.667 19.115 42.667 42.667v298.667zM896 64h-768c-70.571 0-128 57.429-128 128v512c0 70.571 57.429 128 128 128h768c70.571 0 128-57.429 128-128v-512c0-70.571-57.429-128-128-128z" />
<glyph unicode="&#xe951;" glyph-name="crop" d="M981.333 149.333h-640c-70.571 0-128 57.429-128 128l5.547 640.384c0.213 23.552 18.773 43.733 43.051 42.283 23.552-0.213 42.496-19.499 42.283-43.051l-5.547-640c0-23.168 19.157-42.283 42.667-42.283h640c23.595 0 42.667-19.072 42.667-42.667s-19.072-42.667-42.667-42.667zM768-64c-23.595 0-42.667 19.072-42.667 42.667v640c0 23.509-19.115 42.667-42.667 42.667l-639.616-5.547c-25.088 0.085-42.837 18.731-43.051 42.283s18.731 42.837 42.283 43.051l640 5.547c70.955 0 128.384-57.429 128.384-128v-640c0-23.595-19.072-42.667-42.667-42.667z" />
<glyph unicode="&#xe952;" glyph-name="crosshair" d="M465.455 31.66v137.067c0 25.74 20.852 46.545 46.545 46.545 25.74 0 46.545-20.806 46.545-46.545v-137.068c193.894 21.525 348.27 175.901 369.795 369.795h-137.068c-25.74 0-46.545 20.806-46.545 46.545 0 25.693 20.806 46.545 46.545 46.545h137.067c-21.529 193.86-175.903 348.265-369.795 369.795v-137.068c0-25.693-20.806-46.545-46.545-46.545-25.693 0-46.545 20.852-46.545 46.545v137.067c-193.858-21.533-348.26-175.936-369.794-369.794h137.067c25.693 0 46.545-20.852 46.545-46.545 0-25.74-20.852-46.545-46.545-46.545h-137.068c21.53-193.891 175.934-348.266 369.795-369.795zM512-64c-282.298 0-512 229.702-512 512s229.702 512 512 512c282.298 0 512-229.702 512-512s-229.702-512-512-512z" />
<glyph unicode="&#xe953;" glyph-name="dashboard" d="M512 777.429c230.699 0 417.792-187.051 417.792-417.835 0-89.728-28.288-172.885-76.459-240.981l-683.264 0.853c-47.829 67.925-75.861 150.827-75.861 240.128 0 230.741 187.051 417.835 417.792 417.835zM512 594.645c33.024 0 59.776 26.752 59.776 59.819 0 33.024-26.752 59.819-59.776 59.819-33.067 0-59.861-26.795-59.861-59.819 0-33.067 26.795-59.819 59.861-59.819zM721.195 507.093c33.024 0 59.819 26.752 59.819 59.819 0 33.024-26.795 59.819-59.819 59.819-33.067 0-59.861-26.752-59.861-59.819 0-33.024 26.795-59.819 59.861-59.819zM300.928 507.093c33.067 0 59.819 26.752 59.819 59.819s-26.752 59.819-59.819 59.819c-33.024 0-59.819-26.752-59.819-59.819s26.795-59.819 59.819-59.819zM512 183.979c48.341 0 87.509 39.125 87.509 87.509 0 31.701-16.939 59.52-42.24 74.837l47.232 173.355c4.011 14.805-4.736 30.080-19.541 34.091-2.475 0.683-4.864 0.981-7.296 0.981-12.203 0-23.424-8.107-26.752-20.437l-47.915-175.829c-44.16-4.48-78.549-41.771-78.549-86.997 0-48.384 39.211-87.509 87.552-87.509zM807.509 299.776c33.067 0 59.819 26.795 59.819 59.776 0 33.109-26.752 59.861-59.819 59.861-33.024 0-59.776-26.752-59.776-59.861-0.043-32.981 26.709-59.776 59.776-59.776zM213.845 299.776c33.067 0 59.819 26.795 59.819 59.776 0 33.109-26.752 59.861-59.819 59.861-33.024 0-59.776-26.752-59.776-59.861 0-32.981 26.752-59.776 59.776-59.776zM512 862.763c-277.419 0-503.125-225.749-503.125-503.168 0-104.235 31.616-204.288 91.435-289.237l25.429-36.181 771.712-0.981 25.557 36.139c60.288 85.205 92.117 185.6 92.117 290.261 0 277.419-225.707 503.168-503.125 503.168v0z" />
<glyph unicode="&#xe954;" glyph-name="database" d="M512 576c-205.483 0-426.667 53.419-426.667 170.667s221.184 170.667 426.667 170.667 426.667-53.419 426.667-170.667-221.184-170.667-426.667-170.667zM512 832c-224 0-341.333-63.403-341.333-85.333s117.333-85.333 341.333-85.333c223.957 0 341.333 63.403 341.333 85.333s-117.376 85.333-341.333 85.333zM512 277.333c-205.483 0-426.667 53.419-426.667 170.667 0 23.552 19.115 42.667 42.667 42.667s42.667-19.115 42.667-42.667c0-19.883 106.411-85.333 341.333-85.333s341.333 65.451 341.333 85.333c0 23.552 19.072 42.667 42.667 42.667s42.667-19.115 42.667-42.667c0-117.248-221.184-170.667-426.667-170.667zM512-21.333c-205.483 0-426.667 53.419-426.667 170.667v597.333c0 23.552 19.115 42.667 42.667 42.667s42.667-19.115 42.667-42.667v-597.333c0-19.883 106.411-85.333 341.333-85.333s341.333 65.451 341.333 85.333v597.333c0 23.552 19.072 42.667 42.667 42.667s42.667-19.115 42.667-42.667v-597.333c0-117.248-221.184-170.667-426.667-170.667z" />
<glyph unicode="&#xe955;" glyph-name="delete" d="M896 64h-554.667c-12.331 0-23.979 5.291-32.085 14.592l-298.667 341.333c-14.080 16.085-14.080 40.064 0 56.192l298.667 341.333c8.107 9.216 19.755 14.549 32.085 14.549h554.667c70.571 0 128-57.429 128-128v-512c0-70.571-57.429-128-128-128zM360.704 149.333h535.296c23.552 0 42.667 19.115 42.667 42.667v512c0 23.509-19.115 42.667-42.667 42.667h-535.296l-261.333-298.667 261.333-298.667zM512 277.333c-10.923 0-21.845 4.181-30.165 12.501-16.683 16.683-16.683 43.648 0 60.331l256 256c16.683 16.683 43.648 16.683 60.331 0s16.683-43.648 0-60.331l-256-256c-8.32-8.32-19.243-12.501-30.165-12.501zM768 277.333c-10.923 0-21.845 4.181-30.165 12.501l-256 256c-16.683 16.683-16.683 43.648 0 60.331s43.648 16.683 60.331 0l256-256c16.683-16.683 16.683-43.648 0-60.331-8.32-8.32-19.243-12.501-30.165-12.501z" />
<glyph unicode="&#xe956;" glyph-name="arrow2-left" d="M694.857 704l-365.714-297.477 365.714-287.666z" />
<glyph unicode="&#xe957;" glyph-name="arrow2-right" d="M329.143 704l365.714-297.477-365.714-287.666z" />
<glyph unicode="&#xe958;" glyph-name="double-angle-down" d="M512 149.333c-10.923 0-21.845 4.181-30.165 12.501l-213.333 213.333c-16.683 16.683-16.683 43.648 0 60.331s43.648 16.683 60.331 0l183.168-183.168 183.168 183.168c16.683 16.683 43.648 16.683 60.331 0s16.683-43.648 0-60.331l-213.333-213.333c-8.32-8.32-19.243-12.501-30.165-12.501zM512 448c-10.923 0-21.845 4.181-30.165 12.501l-213.333 213.333c-16.683 16.683-16.683 43.648 0 60.331s43.648 16.683 60.331 0l183.168-183.168 183.168 183.168c16.683 16.683 43.648 16.683 60.331 0s16.683-43.648 0-60.331l-213.333-213.333c-8.32-8.32-19.243-12.501-30.165-12.501z" />
<glyph unicode="&#xe959;" glyph-name="double-angle-left" d="M469.333 192c-10.923 0-21.845 4.181-30.165 12.501l-213.333 213.333c-16.683 16.683-16.683 43.648 0 60.331l213.333 213.333c16.683 16.683 43.648 16.683 60.331 0s16.683-43.648 0-60.331l-183.168-183.168 183.168-183.168c16.683-16.683 16.683-43.648 0-60.331-8.32-8.32-19.243-12.501-30.165-12.501zM768 192c-10.923 0-21.845 4.181-30.165 12.501l-213.333 213.333c-16.683 16.683-16.683 43.648 0 60.331l213.333 213.333c16.683 16.683 43.648 16.683 60.331 0s16.683-43.648 0-60.331l-183.168-183.168 183.168-183.168c16.683-16.683 16.683-43.648 0-60.331-8.32-8.32-19.243-12.501-30.165-12.501z" />
<glyph unicode="&#xe95a;" glyph-name="double-angle-right" d="M554.667 192c-10.923 0-21.845 4.181-30.165 12.501-16.683 16.683-16.683 43.648 0 60.331l183.168 183.168-183.168 183.168c-16.683 16.683-16.683 43.648 0 60.331s43.648 16.683 60.331 0l213.333-213.333c16.683-16.683 16.683-43.648 0-60.331l-213.333-213.333c-8.32-8.32-19.243-12.501-30.165-12.501zM256 192c-10.923 0-21.845 4.181-30.165 12.501-16.683 16.683-16.683 43.648 0 60.331l183.168 183.168-183.168 183.168c-16.683 16.683-16.683 43.648 0 60.331s43.648 16.683 60.331 0l213.333-213.333c16.683-16.683 16.683-43.648 0-60.331l-213.333-213.333c-8.32-8.32-19.243-12.501-30.165-12.501z" />
<glyph unicode="&#xe95b;" glyph-name="double-angle-up" d="M725.333 448c-10.923 0-21.845 4.181-30.165 12.501l-183.168 183.168-183.168-183.168c-16.683-16.683-43.648-16.683-60.331 0s-16.683 43.648 0 60.331l213.333 213.333c16.683 16.683 43.648 16.683 60.331 0l213.333-213.333c16.683-16.683 16.683-43.648 0-60.331-8.32-8.32-19.243-12.501-30.165-12.501zM725.333 149.333c-10.923 0-21.845 4.181-30.165 12.501l-183.168 183.168-183.168-183.168c-16.683-16.683-43.648-16.683-60.331 0s-16.683 43.648 0 60.331l213.333 213.333c16.683 16.683 43.648 16.683 60.331 0l213.333-213.333c16.683-16.683 16.683-43.648 0-60.331-8.32-8.32-19.243-12.501-30.165-12.501z" />
<glyph unicode="&#xe95c;" glyph-name="download-cloud" d="M512 21.333c-10.923 0-21.845 4.181-30.165 12.501l-170.667 170.667c-16.683 16.683-16.683 43.648 0 60.331s43.648 16.683 60.331 0l140.501-140.501 140.501 140.501c16.683 16.683 43.648 16.683 60.331 0s16.683-43.648 0-60.331l-170.667-170.667c-8.32-8.32-19.243-12.501-30.165-12.501zM512 21.333c-23.552 0-42.667 19.072-42.667 42.667v384c0 23.552 19.115 42.667 42.667 42.667 23.595 0 42.667-19.115 42.667-42.667v-384c0-23.595-19.072-42.667-42.667-42.667zM890.923 145.493c-13.397 0-26.624 6.315-34.944 18.133-13.525 19.285-8.917 45.867 10.368 59.477 37.291 26.197 62.123 65.365 69.973 110.293s-2.347 90.155-28.544 127.445c-31.957 45.397-84.096 72.491-139.563 72.491-0.085 0-0.128 0-0.171 0h-53.803c-19.499 0-36.48 13.184-41.344 32.043-19.84 77.269-68.523 142.208-137.216 182.827s-149.035 52.053-226.347 32.213c-77.227-19.755-142.165-68.523-182.784-137.173s-52.053-149.035-32.213-226.261c11.691-45.611 34.389-88.405 65.621-123.733 15.616-17.621 13.952-44.587-3.669-60.203-17.664-15.573-44.629-13.952-60.245 3.712-40.149 45.355-69.333 100.309-84.395 158.976-25.472 99.328-10.752 202.667 41.472 290.944s135.68 150.955 235.051 176.427c99.413 25.472 202.667 10.752 290.987-41.472 78.592-46.507 136.875-117.803 166.699-203.008h22.144c0.085 0 0.171 0 0.256 0 83.157 0 161.408-40.661 209.323-108.757 81.152-115.499 53.291-275.499-62.165-356.651-7.467-5.205-16.043-7.723-24.491-7.723z" />
<glyph unicode="&#xe95d;" glyph-name="download" d="M810.667 21.333h-597.333c-70.571 0-128 57.429-128 128v170.667c0 23.595 19.115 42.667 42.667 42.667s42.667-19.072 42.667-42.667v-170.667c0-23.552 19.157-42.667 42.667-42.667h597.333c23.552 0 42.667 19.115 42.667 42.667v170.667c0 23.595 19.072 42.667 42.667 42.667s42.667-19.072 42.667-42.667v-170.667c0-70.571-57.429-128-128-128zM512 277.333c-10.923 0-21.845 4.181-30.165 12.501l-213.333 213.333c-16.683 16.683-16.683 43.648 0 60.331s43.648 16.683 60.331 0l183.168-183.168 183.168 183.168c16.683 16.683 43.648 16.683 60.331 0s16.683-43.648 0-60.331l-213.333-213.333c-8.32-8.32-19.243-12.501-30.165-12.501zM512 277.333c-23.552 0-42.667 19.072-42.667 42.667v512c0 23.552 19.115 42.667 42.667 42.667 23.595 0 42.667-19.115 42.667-42.667v-512c0-23.595-19.072-42.667-42.667-42.667z" />
<glyph unicode="&#xe95e;" glyph-name="droplet" d="M512.213-21.717c-102.528 0-198.912 39.936-271.445 112.384-72.533 72.491-112.512 168.917-112.555 271.488 0 102.571 39.893 199.040 112.384 271.573 0.256 0.256 0.512 0.512 0.811 0.768l240.427 240.896c7.936 7.979 18.816 12.501 30.165 12.501v0c11.307 0 22.187-4.48 30.165-12.501l241.493-241.493c149.76-149.675 149.845-393.259 0.171-543.061-72.533-72.576-169.003-112.555-271.616-112.555zM300.373 572.8c-56.021-56.363-86.827-131.115-86.827-210.645 0-79.744 31.104-154.752 87.552-211.157 56.405-56.32 131.371-87.381 211.115-87.381 79.829 0 154.88 31.104 211.285 87.552 116.437 116.437 116.352 305.963-0.171 422.357l-211.328 211.328-210.859-211.285c-0.256-0.213-0.555-0.512-0.768-0.768z" />
<glyph unicode="&#xe95f;" glyph-name="edit-3" d="M298.667 192h-170.667c-23.552 0-42.667 19.072-42.667 42.667v170.667c0 11.349 4.48 22.187 12.501 30.165l469.333 469.333c16.683 16.683 43.648 16.683 60.331 0l170.667-170.667c16.683-16.683 16.683-43.648 0-60.331l-469.333-469.333c-7.979-8.021-18.859-12.501-30.165-12.501zM170.667 277.333h110.336l426.667 426.667-110.336 110.336-426.667-426.667v-110.336zM896-21.333h-768c-23.552 0-42.667 19.072-42.667 42.667s19.115 42.667 42.667 42.667h768c23.595 0 42.667-19.072 42.667-42.667s-19.072-42.667-42.667-42.667z" />
<glyph unicode="&#xe960;" glyph-name="edit2" d="M768-21.333h-597.333c-70.571 0-128 57.429-128 128v597.333c0 70.571 57.429 128 128 128h227.84c23.552 0 42.667-19.115 42.667-42.667s-19.115-42.667-42.667-42.667h-227.84c-23.509 0-42.667-19.157-42.667-42.667v-597.333c0-23.552 19.157-42.667 42.667-42.667h597.333c23.552 0 42.667 19.115 42.667 42.667v227.84c0 23.595 19.072 42.667 42.667 42.667s42.667-19.072 42.667-42.667v-227.84c0-70.571-57.429-128-128-128zM512 234.667h-170.667c-23.552 0-42.667 19.072-42.667 42.667v170.667c0 11.307 4.48 22.187 12.501 30.165l426.667 426.667c16.683 16.683 43.648 16.683 60.331 0l170.667-170.667c16.683-16.683 16.683-43.648 0-60.331l-426.667-426.667c-7.979-8.021-18.859-12.501-30.165-12.501zM384 320h110.336l384 384-110.336 110.336-384-384v-110.336z" />
<glyph unicode="&#xe961;" glyph-name="envelope" d="M1023.985 729.364c0.053-1.224 0.058-2.447 0.015-3.668v-556.968c0-76.986-62.65-139.636-139.636-139.636h-744.727c-76.986 0-139.636 62.65-139.636 139.636v558.545c0 76.986 62.65 139.636 139.636 139.636h744.727c76.288 0 138.499-61.519 139.621-137.545zM925.992 748.086c-7.648 15.24-23.423 25.733-41.629 25.733h-744.727c-18.165 0-33.949-10.484-41.611-25.714l413.975-289.817 413.992 289.799zM930.909 637.868l-392.192-274.534c-8.052-5.585-17.361-8.425-26.717-8.425s-18.665 2.839-26.671 8.425l-392.239 274.567v-469.174c0-25.693 20.899-46.545 46.545-46.545h744.727c25.693 0 46.545 20.852 46.545 46.545v469.141z" />
<glyph unicode="&#xe962;" glyph-name="external-link" d="M682.667 21.333h-469.333c-70.571 0-128 57.429-128 128v469.333c0 70.571 57.429 128 128 128h256c23.552 0 42.667-19.115 42.667-42.667s-19.115-42.667-42.667-42.667h-256c-23.509 0-42.667-19.157-42.667-42.667v-469.333c0-23.552 19.157-42.667 42.667-42.667h469.333c23.552 0 42.667 19.115 42.667 42.667v256c0 23.552 19.072 42.667 42.667 42.667s42.667-19.115 42.667-42.667v-256c0-70.571-57.429-128-128-128zM896 533.333c-23.595 0-42.667 19.115-42.667 42.667v213.333h-213.333c-23.595 0-42.667 19.115-42.667 42.667s19.072 42.667 42.667 42.667h256c23.595 0 42.667-19.115 42.667-42.667v-256c0-23.552-19.072-42.667-42.667-42.667zM426.667 320c-10.923 0-21.845 4.181-30.165 12.501-16.683 16.683-16.683 43.648 0 60.331l469.333 469.333c16.683 16.683 43.648 16.683 60.331 0s16.683-43.648 0-60.331l-469.333-469.333c-8.32-8.32-19.243-12.501-30.165-12.501z" />
<glyph unicode="&#xe963;" glyph-name="eye-off" d="M512.725 64c-322.048 0-500.779 349.995-508.245 364.928-6.187 12.416-5.973 27.051 0.555 39.253 56.32 104.96 132.864 194.816 227.584 267.179 18.816 14.293 45.568 10.709 59.861-8.021s10.709-45.525-8.021-59.819c-78.891-60.245-143.701-134.016-192.981-219.563 40.064-68.779 191.232-298.624 420.523-298.624 81.28 1.323 162.389 29.44 227.541 79.147 18.688 14.379 45.568 10.624 59.776-8.021 14.293-18.731 10.709-45.483-8.021-59.776-79.531-60.715-178.517-95.061-278.571-96.683zM889.131 269.269c-9.685 0-19.456 3.285-27.477 10.027-18.005 15.147-20.352 42.069-5.12 60.117 28.416 33.707 53.931 70.187 75.989 108.587-40.021 68.736-191.189 298.667-420.523 298.667-26.965-0.299-53.717-3.029-79.872-9.131-22.912-5.333-45.909 8.875-51.285 31.829s8.875 45.867 31.829 51.243c32.512 7.637 65.152 12.672 99.413 11.392 321.237 0 499.968-350.037 507.435-364.928 6.187-12.373 6.016-27.008-0.555-39.211-27.349-51.072-59.989-99.328-97.152-143.445-8.448-9.984-20.523-15.147-32.683-15.147zM508.757 274.219c-41.685 0-83.456 15.147-116.309 45.739-33.365 31.061-52.608 73.259-54.229 118.827s14.635 89.003 45.696 122.368c2.645 2.816 5.461 5.632 8.363 8.363 17.152 16.128 44.16 15.36 60.331-1.792s15.36-44.16-1.792-60.331l-4.309-4.309c-15.659-16.811-23.765-38.528-22.955-61.312s10.411-43.861 27.093-59.435c34.475-32.085 88.533-30.208 120.619 4.267 16.128 17.28 43.136 18.176 60.288 2.133 17.237-16.085 18.219-43.093 2.133-60.288-33.621-36.011-79.232-54.229-124.928-54.229zM981.333-64c-10.923 0-21.845 4.181-30.165 12.501l-938.667 938.667c-16.683 16.683-16.683 43.648 0 60.331s43.648 16.683 60.331 0l938.667-938.667c16.683-16.683 16.683-43.648 0-60.331-8.32-8.32-19.243-12.501-30.165-12.501z" />
<glyph unicode="&#xe964;" glyph-name="eye" d="M512 64c-321.323 0-500.053 349.995-507.52 364.928-6.016 12.032-6.016 26.155 0 38.187 7.467 14.848 186.197 364.885 507.52 364.885s500.053-350.037 507.52-364.928c6.016-12.032 6.016-26.155 0-38.187-7.467-14.891-186.197-364.885-507.52-364.885zM91.392 448.043c39.979-68.608 191.189-298.709 420.608-298.709 230.144 0 380.757 229.931 420.608 298.624-39.979 68.608-191.189 298.709-420.608 298.709-230.144 0-380.757-229.931-420.608-298.624zM512 277.333c-94.123 0-170.667 76.544-170.667 170.667s76.544 170.667 170.667 170.667c94.123 0 170.667-76.544 170.667-170.667s-76.544-170.667-170.667-170.667zM512 533.333c-47.061 0-85.333-38.272-85.333-85.333s38.272-85.333 85.333-85.333c47.061 0 85.333 38.272 85.333 85.333s-38.272 85.333-85.333 85.333z" />
<glyph unicode="&#xe965;" glyph-name="arrow2-up" d="M219.429 228.571l297.477 365.714 287.666-365.714z" />
<glyph unicode="&#xe966;" glyph-name="fast-forward" d="M554.667 106.667c-6.357 0-12.8 1.408-18.731 4.352-14.635 7.168-23.936 22.016-23.936 38.315v597.333c0 16.299 9.301 31.147 23.936 38.315 14.635 7.125 32 5.376 44.971-4.651l384-298.667c10.325-8.064 16.427-20.48 16.427-33.664s-6.101-25.6-16.469-33.664l-384-298.667c-7.637-5.973-16.896-9.003-26.197-9.003zM597.333 659.456v-422.869l271.829 211.413-271.829 211.456zM85.333 106.667c-6.4 0-12.8 1.408-18.731 4.352-14.635 7.168-23.936 22.016-23.936 38.315v597.333c0 16.299 9.301 31.147 23.936 38.315 14.677 7.168 32.085 5.376 44.928-4.608l384-298.667c10.368-8.107 16.469-20.523 16.469-33.707s-6.101-25.6-16.469-33.664l-384-298.667c-7.637-5.973-16.896-9.003-26.197-9.003zM128 659.456v-422.869l271.829 211.413-271.829 211.456z" />
<glyph unicode="&#xe967;" glyph-name="add" d="M457.143 886.857c0 30.297 24.56 54.857 54.857 54.857s54.857-24.56 54.857-54.857v-841.143c0-30.297-24.56-54.857-54.857-54.857s-54.857 24.56-54.857 54.857v841.143zM477.087 502.857c30.297 0 54.857-24.56 54.857-54.857s-24.56-54.857-54.857-54.857h-403.945c-30.297 0-54.857 24.56-54.857 54.857s24.56 54.857 54.857 54.857h403.945zM915.69 502.857c30.297 0 54.857-24.56 54.857-54.857s-24.56-54.857-54.857-54.857h-223.841c-30.297 0-54.857 24.56-54.857 54.857s24.56 54.857 54.857 54.857h223.841z" />
<glyph unicode="&#xe968;" glyph-name="file-minus" d="M635.648 948.573c1.081-0.942 2.118-1.932 3.108-2.968l277.753-277.753c1.042-0.995 2.037-2.038 2.983-3.125 7.351-8.431 11.418-19.295 11.418-30.546v-558.545c0-76.986-62.65-139.636-139.636-139.636h-558.545c-76.986 0-139.636 62.65-139.636 139.636v744.727c0 76.986 62.65 139.636 139.636 139.636h372.364c11.298 0 22.131-4.070 30.554-11.431zM558.545 866.909h-325.818c-25.647 0-46.545-20.899-46.545-46.545v-744.727c0-25.693 20.899-46.545 46.545-46.545h558.545c25.693 0 46.545 20.852 46.545 46.545v512h-232.727c-25.74 0-46.545 20.852-46.545 46.545v232.727zM651.636 801.094v-120.367h120.367l-120.367 120.367zM651.636 261.818h-279.273c-25.693 0-46.545 20.806-46.545 46.545s20.852 46.545 46.545 46.545h279.273c25.74 0 46.545-20.806 46.545-46.545s-20.806-46.545-46.545-46.545z" />
<glyph unicode="&#xe969;" glyph-name="file-plus" d="M465.455 261.818h-93.091c-25.693 0-46.545 20.806-46.545 46.545s20.852 46.545 46.545 46.545h93.091v93.091c0 25.693 20.852 46.545 46.545 46.545 25.74 0 46.545-20.852 46.545-46.545v-93.091h93.091c25.74 0 46.545-20.806 46.545-46.545s-20.806-46.545-46.545-46.545h-93.091v-93.091c0-25.74-20.806-46.545-46.545-46.545-25.693 0-46.545 20.806-46.545 46.545v93.091zM635.648 948.573c1.081-0.942 2.118-1.932 3.108-2.968l277.753-277.753c1.042-0.995 2.037-2.038 2.983-3.125 7.351-8.431 11.418-19.295 11.418-30.546v-558.545c0-76.986-62.65-139.636-139.636-139.636h-558.545c-76.986 0-139.636 62.65-139.636 139.636v744.727c0 76.986 62.65 139.636 139.636 139.636h372.364c11.298 0 22.131-4.070 30.554-11.431zM558.545 866.909h-325.818c-25.647 0-46.545-20.899-46.545-46.545v-744.727c0-25.693 20.899-46.545 46.545-46.545h558.545c25.693 0 46.545 20.852 46.545 46.545v512h-232.727c-25.74 0-46.545 20.852-46.545 46.545v232.727zM651.636 801.094v-120.367h120.367l-120.367 120.367z" />
<glyph unicode="&#xe96a;" glyph-name="file-text1" d="M768-21.333h-512c-70.571 0-128 57.429-128 128v682.667c0 70.571 57.429 128 128 128h341.333c11.349 0 22.187-4.48 30.165-12.501l256-256c8.021-7.979 12.501-18.859 12.501-30.165v-512c0-70.571-57.429-128-128-128zM256 832c-23.509 0-42.667-19.157-42.667-42.667v-682.667c0-23.552 19.157-42.667 42.667-42.667h512c23.552 0 42.667 19.115 42.667 42.667v494.336l-230.997 230.997h-323.669zM853.333 576h-256c-23.595 0-42.667 19.115-42.667 42.667v256c0 23.552 19.072 42.667 42.667 42.667s42.667-19.115 42.667-42.667v-213.333h213.333c23.595 0 42.667-19.115 42.667-42.667s-19.072-42.667-42.667-42.667zM682.667 362.667h-341.333c-23.552 0-42.667 19.072-42.667 42.667 0 23.552 19.115 42.667 42.667 42.667h341.333c23.595 0 42.667-19.115 42.667-42.667 0-23.595-19.072-42.667-42.667-42.667zM682.667 192h-341.333c-23.552 0-42.667 19.072-42.667 42.667s19.115 42.667 42.667 42.667h341.333c23.595 0 42.667-19.072 42.667-42.667s-19.072-42.667-42.667-42.667zM426.667 533.333h-85.333c-23.552 0-42.667 19.115-42.667 42.667s19.115 42.667 42.667 42.667h85.333c23.552 0 42.667-19.115 42.667-42.667s-19.115-42.667-42.667-42.667z" />
<glyph unicode="&#xe96b;" glyph-name="file" d="M768-21.333h-512c-70.571 0-128 57.429-128 128v682.667c0 70.571 57.429 128 128 128h298.667c11.349 0 22.187-4.48 30.165-12.501l298.667-298.667c8.021-7.979 12.501-18.859 12.501-30.165v-469.333c0-70.571-57.429-128-128-128zM256 832c-23.509 0-42.667-19.157-42.667-42.667v-682.667c0-23.552 19.157-42.667 42.667-42.667h512c23.552 0 42.667 19.115 42.667 42.667v451.669l-273.664 273.664h-281.003zM853.333 533.333h-298.667c-23.552 0-42.667 19.115-42.667 42.667v298.667c0 23.552 19.115 42.667 42.667 42.667 23.595 0 42.667-19.115 42.667-42.667v-256h256c23.595 0 42.667-19.115 42.667-42.667s-19.072-42.667-42.667-42.667z" />
<glyph unicode="&#xe96c;" glyph-name="film" d="M930.909 634.182h-139.636v-139.636h139.636v139.636zM930.909 727.273v84.713c0 30.301-24.623 54.924-54.924 54.924h-84.713v-139.636h139.636zM930.909 261.818v139.636h-139.636v-139.636h139.636zM930.909 168.727h-139.636v-139.636h84.713c30.255 0 54.924 24.623 54.924 54.924v84.713zM93.091 261.818h139.636v139.636h-139.636v-139.636zM93.091 168.727v-84.713c0-30.301 24.623-54.924 54.924-54.924h84.713v139.636h-139.636zM93.091 634.182v-139.636h139.636v139.636h-139.636zM93.091 727.273h139.636v139.636h-84.713c-30.301 0-54.924-24.623-54.924-54.924v-84.713zM325.818 494.545h372.364v372.364h-372.364v-372.364zM325.818 401.455v-372.364h372.364v372.364h-372.364zM875.985-64h-727.971c-81.594 0-148.015 66.42-148.015 148.015v727.971c0 81.594 66.42 148.015 148.015 148.015h727.971c81.594 0 148.015-66.42 148.015-148.015v-727.971c0-81.594-66.42-148.015-148.015-148.015z" />
<glyph unicode="&#xe96d;" glyph-name="filter" d="M597.333 21.333c-6.528 0-13.056 1.493-19.072 4.48l-170.667 85.333c-14.464 7.253-23.595 22.016-23.595 38.187v263.424l-331.264 391.68c-10.709 12.672-13.099 30.464-6.101 45.525s22.101 24.704 38.699 24.704h853.333c16.64 0 31.701-9.643 38.699-24.704s4.565-32.853-6.144-45.483l-331.221-391.723v-348.757c0-14.805-7.68-28.501-20.267-36.309-6.827-4.224-14.592-6.357-22.4-6.357zM469.333 175.701l85.333-42.667v295.339c0 10.069 3.584 19.84 10.069 27.563l281.984 333.397h-669.44l281.941-333.397c6.528-7.723 10.112-17.493 10.112-27.563v-252.672z" />
<glyph unicode="&#xe96e;" glyph-name="flag" d="M682.667 234.667c-72.192 0-130.347 23.253-186.539 45.696-50.901 20.395-98.987 39.637-154.795 39.637-104.32 0-141.227-30.891-141.568-31.189-12.629-10.965-31.061-14.037-46.208-7.083s-25.557 21.547-25.557 38.272v512c0 11.307 4.48 22.187 12.501 30.165 9.216 9.216 62.165 55.168 200.832 55.168 72.192 0 130.304-23.253 186.539-45.696 50.901-20.395 98.987-39.637 154.795-39.637 104.277 0 141.227 30.891 141.568 31.189 12.629 10.88 30.976 14.037 46.251 7.083 15.189-6.955 25.515-21.589 25.515-38.272v-512c0-11.349-4.48-22.187-12.501-30.165-9.216-9.216-62.165-55.168-200.832-55.168zM341.333 405.333c72.192 0 130.304-23.253 186.539-45.696 50.901-20.395 98.987-39.637 154.795-39.637 69.675 0 109.312 13.781 128 23.040v420.437c-30.763-9.472-72.491-16.811-128-16.811-72.192 0-130.347 23.253-186.539 45.696-50.901 20.395-98.987 39.637-154.795 39.637-69.675 0-109.269-13.781-128-23.040v-420.437c30.72 9.429 72.491 16.811 128 16.811zM170.667-21.333c-23.552 0-42.667 19.072-42.667 42.667v298.667c0 23.595 19.115 42.667 42.667 42.667s42.667-19.072 42.667-42.667v-298.667c0-23.595-19.115-42.667-42.667-42.667z" />
<glyph unicode="&#xe96f;" glyph-name="folder-minus" d="M853.333 21.333h-682.667c-70.571 0-128 57.429-128 128v597.333c0 70.571 57.429 128 128 128h213.333c14.251 0 27.563-7.125 35.499-18.987l72.661-109.013h361.173c70.571 0 128-57.429 128-128v-469.333c0-70.571-57.429-128-128-128zM170.667 789.333c-23.509 0-42.667-19.157-42.667-42.667v-597.333c0-23.552 19.157-42.667 42.667-42.667h682.667c23.552 0 42.667 19.115 42.667 42.667v469.333c0 23.509-19.115 42.667-42.667 42.667h-384c-14.251 0-27.563 7.125-35.499 18.987l-72.661 109.013h-190.507zM640 320h-256c-23.552 0-42.667 19.072-42.667 42.667s19.115 42.667 42.667 42.667h256c23.595 0 42.667-19.072 42.667-42.667s-19.072-42.667-42.667-42.667z" />
<glyph unicode="&#xe970;" glyph-name="folder-plus" d="M853.333 21.333h-682.667c-70.571 0-128 57.429-128 128v597.333c0 70.571 57.429 128 128 128h213.333c14.251 0 27.563-7.125 35.499-18.987l72.661-109.013h361.173c70.571 0 128-57.429 128-128v-469.333c0-70.571-57.429-128-128-128zM170.667 789.333c-23.509 0-42.667-19.157-42.667-42.667v-597.333c0-23.552 19.157-42.667 42.667-42.667h682.667c23.552 0 42.667 19.115 42.667 42.667v469.333c0 23.509-19.115 42.667-42.667 42.667h-384c-14.251 0-27.563 7.125-35.499 18.987l-72.661 109.013h-190.507zM512 192c-23.552 0-42.667 19.072-42.667 42.667v256c0 23.552 19.115 42.667 42.667 42.667 23.595 0 42.667-19.115 42.667-42.667v-256c0-23.595-19.072-42.667-42.667-42.667zM640 320h-256c-23.552 0-42.667 19.072-42.667 42.667s19.115 42.667 42.667 42.667h256c23.595 0 42.667-19.072 42.667-42.667s-19.072-42.667-42.667-42.667z" />
<glyph unicode="&#xe971;" glyph-name="folder" d="M853.333 21.333h-682.667c-70.571 0-128 57.429-128 128v597.333c0 70.571 57.429 128 128 128h213.333c14.251 0 27.563-7.125 35.499-18.987l72.661-109.013h361.173c70.571 0 128-57.429 128-128v-469.333c0-70.571-57.429-128-128-128zM170.667 789.333c-23.509 0-42.667-19.157-42.667-42.667v-597.333c0-23.552 19.157-42.667 42.667-42.667h682.667c23.552 0 42.667 19.115 42.667 42.667v469.333c0 23.509-19.115 42.667-42.667 42.667h-384c-14.251 0-27.563 7.125-35.499 18.987l-72.661 109.013h-190.507z" />
<glyph unicode="&#xe972;" glyph-name="gift" d="M868.634 727.273h108.82c25.74 0 46.545-20.852 46.545-46.545v-232.727c0-25.74-20.806-46.545-46.545-46.545h-46.545v-418.909c0-25.74-20.806-46.545-46.545-46.545h-744.727c-25.693 0-46.545 20.806-46.545 46.545v418.909h-46.545c-25.693 0-46.545 20.806-46.545 46.545v232.727c0 25.693 20.852 46.545 46.545 46.545h108.82c-10.083 21.172-15.729 44.848-15.729 69.818 0 89.833 73.076 162.909 162.909 162.909 106.764 0 171.789-74.732 209.461-145.632 37.665 70.903 102.69 145.632 209.448 145.632 89.833 0 162.909-73.076 162.909-162.909 0-24.971-5.646-48.647-15.729-69.818zM558.545 634.182v-139.636h372.364v139.636h-372.364zM465.455 634.182h-372.364v-139.636h372.364v139.636zM558.545 401.455v-372.364h279.273v372.364h-279.273zM465.455 401.455h-279.273v-372.364h279.273v372.364zM302.545 866.909c-38.493 0-69.818-31.325-69.818-69.818s31.325-69.818 69.818-69.818h146.804c-21.923 57.763-67.072 139.636-146.804 139.636zM574.65 727.273h146.804c38.493 0 69.818 31.325 69.818 69.818s-31.325 69.818-69.818 69.818c-79.732 0-124.928-81.873-146.804-139.636z" />
<glyph unicode="&#xe973;" glyph-name="git-branch" d="M256 277.333c-23.552 0-42.667 19.072-42.667 42.667v512c0 23.552 19.115 42.667 42.667 42.667s42.667-19.115 42.667-42.667v-512c0-23.595-19.115-42.667-42.667-42.667zM768 533.333c-94.123 0-170.667 76.544-170.667 170.667s76.544 170.667 170.667 170.667 170.667-76.544 170.667-170.667-76.544-170.667-170.667-170.667zM768 789.333c-47.061 0-85.333-38.272-85.333-85.333s38.272-85.333 85.333-85.333 85.333 38.272 85.333 85.333-38.272 85.333-85.333 85.333zM256 21.333c-94.123 0-170.667 76.544-170.667 170.667s76.544 170.667 170.667 170.667 170.667-76.544 170.667-170.667-76.544-170.667-170.667-170.667zM256 277.333c-47.061 0-85.333-38.272-85.333-85.333s38.272-85.333 85.333-85.333 85.333 38.272 85.333 85.333-38.272 85.333-85.333 85.333zM384 149.333c-23.552 0-42.667 19.072-42.667 42.667s19.115 42.667 42.667 42.667c188.203 0 341.333 153.131 341.333 341.333 0 23.552 19.072 42.667 42.667 42.667s42.667-19.115 42.667-42.667c0-235.264-191.403-426.667-426.667-426.667z" />
<glyph unicode="&#xe974;" glyph-name="git-commit" d="M512 234.667c-117.632 0-213.333 95.701-213.333 213.333s95.701 213.333 213.333 213.333 213.333-95.701 213.333-213.333-95.701-213.333-213.333-213.333zM512 576c-70.571 0-128-57.429-128-128s57.429-128 128-128 128 57.429 128 128-57.429 128-128 128zM298.667 405.333h-253.867c-23.552 0-42.667 19.072-42.667 42.667 0 23.552 19.115 42.667 42.667 42.667h253.867c23.552 0 42.667-19.115 42.667-42.667 0-23.595-19.115-42.667-42.667-42.667zM979.627 405.333h-253.867c-23.595 0-42.667 19.072-42.667 42.667 0 23.552 19.072 42.667 42.667 42.667h253.867c23.595 0 42.667-19.115 42.667-42.667 0-23.595-19.072-42.667-42.667-42.667z" />
<glyph unicode="&#xe975;" glyph-name="git-merge" d="M768 21.333c-94.123 0-170.667 76.544-170.667 170.667s76.544 170.667 170.667 170.667 170.667-76.544 170.667-170.667-76.544-170.667-170.667-170.667zM768 277.333c-47.061 0-85.333-38.272-85.333-85.333s38.272-85.333 85.333-85.333 85.333 38.272 85.333 85.333-38.272 85.333-85.333 85.333zM256 533.333c-94.123 0-170.667 76.544-170.667 170.667s76.544 170.667 170.667 170.667 170.667-76.544 170.667-170.667-76.544-170.667-170.667-170.667zM256 789.333c-47.061 0-85.333-38.272-85.333-85.333s38.272-85.333 85.333-85.333 85.333 38.272 85.333 85.333-38.272 85.333-85.333 85.333zM256 21.333c-23.552 0-42.667 19.072-42.667 42.667v512c0 23.552 19.115 42.667 42.667 42.667s42.667-19.115 42.667-42.667c0-188.203 153.131-341.333 341.333-341.333 23.595 0 42.667-19.072 42.667-42.667s-19.072-42.667-42.667-42.667c-139.435 0-263.424 67.2-341.333 170.923v-256.256c0-23.595-19.115-42.667-42.667-42.667z" />
<glyph unicode="&#xe976;" glyph-name="git-pull-request" d="M768 21.333c-94.123 0-170.667 76.544-170.667 170.667s76.544 170.667 170.667 170.667 170.667-76.544 170.667-170.667-76.544-170.667-170.667-170.667zM768 277.333c-47.061 0-85.333-38.272-85.333-85.333s38.272-85.333 85.333-85.333 85.333 38.272 85.333 85.333-38.272 85.333-85.333 85.333zM256 533.333c-94.123 0-170.667 76.544-170.667 170.667s76.544 170.667 170.667 170.667 170.667-76.544 170.667-170.667-76.544-170.667-170.667-170.667zM256 789.333c-47.061 0-85.333-38.272-85.333-85.333s38.272-85.333 85.333-85.333 85.333 38.272 85.333 85.333-38.272 85.333-85.333 85.333zM768 277.333c-23.595 0-42.667 19.072-42.667 42.667v298.667c0 23.509-19.115 42.667-42.667 42.667h-128c-23.552 0-42.667 19.115-42.667 42.667s19.115 42.667 42.667 42.667h128c70.571 0 128-57.429 128-128v-298.667c0-23.595-19.072-42.667-42.667-42.667zM256 21.333c-23.552 0-42.667 19.072-42.667 42.667v512c0 23.552 19.115 42.667 42.667 42.667s42.667-19.115 42.667-42.667v-512c0-23.595-19.115-42.667-42.667-42.667z" />
<glyph unicode="&#xe977;" glyph-name="arrow1-down" d="M784.298 650.499c20.695 21.876 55.019 22.654 76.665 1.739s22.416-55.604 1.72-77.48l-311.491-329.257c-21.355-22.573-57.030-22.573-78.385 0l-311.491 329.257c-20.695 21.876-19.925 56.564 1.72 77.48s55.969 20.137 76.665-1.739l272.298-287.829 272.298 287.829z" />
<glyph unicode="&#xe978;" glyph-name="arrow1-left" d="M422.625 443.955l287.829 272.298c21.876 20.695 22.654 55.019 1.739 76.665s-55.604 22.416-77.48 1.72l-329.257-311.491c-22.573-21.355-22.573-57.030 0-78.385l329.257-311.491c21.876-20.695 56.564-19.925 77.48 1.72s20.137 55.969-1.739 76.665l-287.829 272.298z" />
<glyph unicode="&#xe979;" glyph-name="globe" d="M928.34 494.545c-19.277 173.587-145.068 315.539-310.369 358.788 71.048-106.765 114.067-230.162 124.487-358.788h185.882zM928.341 401.455h-186.005c-10.629-129.258-53.588-252.365-124.36-358.789 165.301 43.242 291.091 185.173 310.365 358.789zM95.66 401.455c19.28-173.633 145.119-315.575 310.427-358.802-71.043 106.797-114.045 230.177-124.488 358.802h-185.939zM95.661 494.545h186.061c10.655 129.252 53.61 252.372 124.396 358.807-165.321-43.226-291.172-185.194-310.457-358.807zM649.096 494.545c-11.419 125.61-59.037 246.272-137.096 346.764-77.72-100.15-125.267-220.427-136.95-346.764h274.046zM648.964 401.455h-274.046c11.446-125.572 59.027-246.229 137.083-346.717 77.761 100.109 125.313 220.381 136.964 346.717zM512-64c-282.298 0-512 229.702-512 512s229.702 512 512 512c282.298 0 512-229.702 512-512s-229.702-512-512-512z" />
<glyph unicode="&#xe97a;" glyph-name="grid" d="M426.667 490.667h-298.667c-23.552 0-42.667 19.115-42.667 42.667v298.667c0 23.552 19.115 42.667 42.667 42.667h298.667c23.552 0 42.667-19.115 42.667-42.667v-298.667c0-23.552-19.115-42.667-42.667-42.667zM170.667 576h213.333v213.333h-213.333v-213.333zM896 490.667h-298.667c-23.595 0-42.667 19.115-42.667 42.667v298.667c0 23.552 19.072 42.667 42.667 42.667h298.667c23.595 0 42.667-19.115 42.667-42.667v-298.667c0-23.552-19.072-42.667-42.667-42.667zM640 576h213.333v213.333h-213.333v-213.333zM896 21.333h-298.667c-23.595 0-42.667 19.072-42.667 42.667v298.667c0 23.595 19.072 42.667 42.667 42.667h298.667c23.595 0 42.667-19.072 42.667-42.667v-298.667c0-23.595-19.072-42.667-42.667-42.667zM640 106.667h213.333v213.333h-213.333v-213.333zM426.667 21.333h-298.667c-23.552 0-42.667 19.072-42.667 42.667v298.667c0 23.595 19.115 42.667 42.667 42.667h298.667c23.552 0 42.667-19.072 42.667-42.667v-298.667c0-23.595-19.115-42.667-42.667-42.667zM170.667 106.667h213.333v213.333h-213.333v-213.333z" />
</font>
</defs>
</svg>
